<?xml version="1.0" encoding="UTF-8"?><svg id="_레이어_2" xmlns="http://www.w3.org/2000/svg" xmlns:xlink="http://www.w3.org/1999/xlink" viewBox="0 0 624.19 669.49"><defs><style>.cls-1{fill:#ffdc15;}.cls-2{fill:#fff;}.cls-3{clip-path:url(#clippath-2);}.cls-4{clip-path:url(#clippath-6);}.cls-5{clip-path:url(#clippath-1);}.cls-6{fill:none;}.cls-7{clip-path:url(#clippath-3);}.cls-8{fill:#e7414b;}.cls-9{fill:#3ead6c;}.cls-10{clip-path:url(#clippath-5);}.cls-11{fill:#00b0df;}.cls-12{fill:#1d1d1b;}.cls-13{fill:#15120b;}</style><clipPath id="clippath-1"><polygon class="cls-6" points="59.82 311.28 24.57 349.73 24.57 424.72 60.23 396.72 59.82 311.28"/></clipPath><clipPath id="clippath-2"><polygon class="cls-6" points="598.72 438.99 616.92 467.21 617.72 537.79 597.1 515.17 598.72 438.99"/></clipPath><clipPath id="clippath-3"><polygon class="cls-6" points="582.96 664.36 141.34 664.36 174.73 627.36 613.98 626.88 582.96 664.36"/></clipPath><clipPath id="clippath-5"><polyline class="cls-6" points="23.5 263.51 60.28 306.16 616.94 306.16 574.95 256.96 23.5 263.51"/></clipPath><clipPath id="clippath-6"><polygon class="cls-6" points="582.66 136.15 613.65 171.73 615.38 299.26 582.51 261.78 582.66 136.15"/></clipPath></defs><g id="Layer_3"><g><g><g><polygon class="cls-9" points="53.59 162.75 307.9 162.75 307.9 56.33 278.97 22.78 24.66 129.19 53.59 162.75"/><path class="cls-12" d="M309.91,164.76H52.67l-31.35-36.35,2.56-1.07L279.54,20.36l30.38,35.23v109.18Zm-255.4-4.02h251.37V57.08l-27.49-31.88L27.99,129.98l26.52,30.76Z"/></g><g><rect class="cls-2" x="23.17" y="22.87" width="253.93" height="106.42"/><path class="cls-12" d="M279.11,131.3H21.16V20.86H279.11v110.44Zm-253.93-4.02h249.9V24.88H25.19V127.27Z"/></g></g><g><g><path class="cls-12" d="M49.53,112.16v-13.94c4.14-4.3,7.95-8.33,11.43-12.1,3.48-3.77,6.54-7.3,9.2-10.59,.85-1.06,1.42-2.12,1.71-3.19,.29-1.06,.38-2.02,.28-2.87-.11-.9-.57-1.63-1.39-2.19-.82-.56-1.9-.84-3.23-.84-3.08,0-6.01,.47-8.8,1.39-2.79,.93-5.64,2.48-8.56,4.66v-17.76c2.55-1.75,5.72-3.19,9.52-4.3,3.8-1.11,8.45-1.67,13.98-1.67,14.6,0,21.9,6.45,21.9,19.35,0,2.12-.31,4.19-.92,6.21-.61,2.02-1.45,3.97-2.51,5.85-1.06,1.88-2.32,3.73-3.78,5.53-1.46,1.81-3.04,3.58-4.74,5.34-.58,.64-1.29,1.35-2.11,2.15-.82,.8-1.67,1.63-2.55,2.51-.88,.88-1.74,1.74-2.59,2.59-.85,.85-1.62,1.62-2.31,2.31l1.67,.72c.96-.9,2.1-1.95,3.42-3.15,1.33-1.19,2.52-2.19,3.58-2.99h12.02v16.96H49.53Z"/><path class="cls-12" d="M99.15,81.1c0-5.31,.6-9.98,1.79-14.02,1.19-4.03,2.89-7.41,5.1-10.11,2.2-2.71,4.86-4.75,7.96-6.13,3.11-1.38,6.57-2.07,10.39-2.07s7.3,.69,10.43,2.07c3.13,1.38,5.8,3.42,8,6.13,2.2,2.71,3.9,6.08,5.1,10.11,1.19,4.04,1.79,8.71,1.79,14.02s-.6,9.98-1.79,14.02c-1.19,4.04-2.89,7.41-5.1,10.11-2.2,2.71-4.87,4.75-8,6.13-3.13,1.38-6.61,2.07-10.43,2.07s-7.29-.68-10.39-2.03c-3.11-1.35-5.76-3.38-7.96-6.09-2.2-2.71-3.9-6.08-5.1-10.11-1.19-4.03-1.79-8.73-1.79-14.1Z"/><path class="cls-12" d="M153.3,112.16v-13.94c4.14-4.3,7.95-8.33,11.43-12.1,3.48-3.77,6.54-7.3,9.2-10.59,.85-1.06,1.42-2.12,1.71-3.19,.29-1.06,.38-2.02,.28-2.87-.11-.9-.57-1.63-1.39-2.19-.82-.56-1.9-.84-3.23-.84-3.08,0-6.01,.47-8.8,1.39-2.79,.93-5.64,2.48-8.56,4.66v-17.76c2.55-1.75,5.72-3.19,9.52-4.3,3.8-1.11,8.45-1.67,13.98-1.67,14.6,0,21.9,6.45,21.9,19.35,0,2.12-.31,4.19-.92,6.21-.61,2.02-1.45,3.97-2.51,5.85-1.06,1.88-2.32,3.73-3.78,5.53-1.46,1.81-3.04,3.58-4.74,5.34-.58,.64-1.29,1.35-2.11,2.15-.82,.8-1.67,1.63-2.55,2.51-.88,.88-1.74,1.74-2.59,2.59-.85,.85-1.62,1.62-2.31,2.31l1.67,.72c.96-.9,2.1-1.95,3.42-3.15,1.33-1.19,2.52-2.19,3.58-2.99h12.02v16.96h-45.23Z"/><path class="cls-12" d="M248.54,93.77c0,3.24-.58,6.07-1.75,8.48-1.17,2.42-2.81,4.43-4.94,6.05-2.12,1.62-4.67,2.83-7.64,3.62-2.97,.8-6.29,1.19-9.95,1.19-4.89,0-8.97-.36-12.26-1.08-3.29-.72-6.24-1.82-8.84-3.3v-17.76c2.18,1.22,4.59,2.27,7.25,3.15,2.65,.88,5.49,1.31,8.52,1.31,.64,0,1.33-.08,2.07-.24,.74-.16,1.42-.42,2.03-.8,.61-.37,1.11-.85,1.51-1.43,.4-.58,.6-1.3,.6-2.15,0-2.07-1.29-3.44-3.86-4.1-2.58-.66-5.93-.78-10.07-.36v-12.42c1.96,.11,3.8,.12,5.49,.04,1.7-.08,3.17-.27,4.42-.56,1.25-.29,2.23-.72,2.95-1.27,.72-.56,1.08-1.26,1.08-2.11,0-1.06-.44-1.92-1.31-2.59-.88-.66-2.24-1-4.1-1-1.38,0-2.8,.12-4.26,.36-1.46,.24-2.91,.57-4.34,1-1.43,.43-2.83,.92-4.18,1.47-1.35,.56-2.62,1.15-3.78,1.79v-17.92c2.55-1.38,5.72-2.45,9.52-3.23,3.8-.77,8.45-1.15,13.98-1.15,7.33,0,12.81,1.61,16.44,4.82,3.64,3.21,5.46,7.79,5.46,13.74,0,2.6-.52,4.89-1.55,6.85-1.04,1.96-2.32,3.64-3.86,5.02-1.54,1.38-3.23,2.46-5.06,3.23-1.83,.77-3.57,1.26-5.22,1.47l.56,1.83c1.54-.26,3.15-.7,4.82-1.31,1.67-.61,3.2-1.37,4.58-2.27,.64,.48,1.29,1.11,1.95,1.91,.66,.8,1.27,1.71,1.83,2.75,.56,1.04,1.02,2.15,1.39,3.34,.37,1.19,.56,2.4,.56,3.62Z"/></g><g><path class="cls-2" d="M138.36,80.98c-9.31,2.57-11.39,4.65-13.96,13.96-2.57-9.31-4.65-11.39-13.96-13.96,9.31-2.57,11.39-4.65,13.96-13.96,2.57,9.31,4.65,11.39,13.96,13.96Z"/><path class="cls-2" d="M138.36,80.98c-9.31,2.57-11.39,4.65-13.96,13.96-2.57-9.31-4.65-11.39-13.96-13.96,9.31-2.57,11.39-4.65,13.96-13.96,2.57,9.31,4.65,11.39,13.96,13.96Z"/></g></g><g><g><polygon class="cls-2" points="487.2 428.69 22.43 428.69 22.43 348.97 61.31 306.46 522.37 396.73 487.2 428.69"/><path class="cls-12" d="M487.98,430.71H20.42v-82.52l40.17-43.92,1.11,.22,464.99,91.04-38.71,35.18Zm-463.54-4.02H486.42l31.63-28.74L62.03,308.65l-37.59,41.1v76.93Z"/></g><g><polygon class="cls-11" points="489.21 427.89 24.44 427.89 64.42 395.82 523.98 396.73 489.21 427.89"/><path class="cls-12" d="M489.98,429.9H18.72l45-36.1h.71s464.8,.93,464.8,.93l-39.25,35.17Zm-459.82-4.02H488.44l30.29-27.14-453.61-.9-34.96,28.05Z"/></g><g><rect class="cls-1" x="62.43" y="306.32" width="461.55" height="90.41" transform="translate(586.41 703.05) rotate(-180)"/><path class="cls-12" d="M525.99,398.74H60.41v-94.44h465.58v94.44Zm-461.55-4.02h457.53v-86.39H64.44v86.39Z"/></g><g class="cls-5"><g><g><g><g><circle class="cls-8" cx="89.53" cy="249.77" r="1.71"/><circle class="cls-8" cx="86.6" cy="258.19" r="1.71"/><circle class="cls-8" cx="83.66" cy="266.61" r="1.71"/><circle class="cls-8" cx="80.72" cy="275.02" r="1.71"/><circle class="cls-8" cx="77.78" cy="283.44" r="1.71"/><circle class="cls-8" cx="74.84" cy="291.86" r="1.71"/><circle class="cls-8" cx="71.9" cy="300.28" r="1.71"/><circle class="cls-8" cx="68.96" cy="308.7" r="1.71"/><circle class="cls-8" cx="66.02" cy="317.11" r="1.71"/><circle class="cls-8" cx="63.08" cy="325.53" r="1.71"/><circle class="cls-8" cx="60.14" cy="333.95" r="1.71"/><circle class="cls-8" cx="57.2" cy="342.37" r="1.71"/><circle class="cls-8" cx="54.26" cy="350.79" r="1.71"/><circle class="cls-8" cx="51.32" cy="359.2" r="1.71"/><circle class="cls-8" cx="48.38" cy="367.62" r="1.71"/><circle class="cls-8" cx="45.44" cy="376.04" r="1.71"/></g><g><circle class="cls-8" cx="97.95" cy="252.71" r="1.71"/><circle class="cls-8" cx="95.01" cy="261.13" r="1.71"/><circle class="cls-8" cx="92.07" cy="269.54" r="1.71"/><circle class="cls-8" cx="89.13" cy="277.96" r="1.71"/><circle class="cls-8" cx="86.19" cy="286.38" r="1.71"/><circle class="cls-8" cx="83.26" cy="294.8" r="1.71"/><circle class="cls-8" cx="80.32" cy="303.22" r="1.71"/><circle class="cls-8" cx="77.38" cy="311.64" r="1.71"/><circle class="cls-8" cx="74.44" cy="320.05" r="1.71"/><circle class="cls-8" cx="71.5" cy="328.47" r="1.71"/><circle class="cls-8" cx="68.56" cy="336.89" r="1.71"/><circle class="cls-8" cx="65.62" cy="345.31" r="1.71"/><circle class="cls-8" cx="62.68" cy="353.73" r="1.71"/><circle class="cls-8" cx="59.74" cy="362.14" r="1.71"/><circle class="cls-8" cx="56.8" cy="370.56" r="1.71"/><circle class="cls-8" cx="53.86" cy="378.98" r="1.71"/></g><g><circle class="cls-8" cx="106.37" cy="255.65" r="1.71"/><circle class="cls-8" cx="103.43" cy="264.07" r="1.71"/><circle class="cls-8" cx="100.49" cy="272.48" r="1.71"/><circle class="cls-8" cx="97.55" cy="280.9" r="1.71"/><circle class="cls-8" cx="94.61" cy="289.32" r="1.71"/><circle class="cls-8" cx="91.67" cy="297.74" r="1.71"/><circle class="cls-8" cx="88.73" cy="306.16" r="1.71"/><circle class="cls-8" cx="85.79" cy="314.57" r="1.71"/><circle class="cls-8" cx="82.85" cy="322.99" r="1.71"/><circle class="cls-8" cx="79.92" cy="331.41" r="1.71"/><circle class="cls-8" cx="76.98" cy="339.83" r="1.71"/><circle class="cls-8" cx="74.04" cy="348.25" r="1.71"/><circle class="cls-8" cx="71.1" cy="356.67" r="1.71"/><circle class="cls-8" cx="68.16" cy="365.08" r="1.71"/><circle class="cls-8" cx="65.22" cy="373.5" r="1.71"/><circle class="cls-8" cx="62.28" cy="381.92" r="1.71"/></g><g><circle class="cls-8" cx="114.79" cy="258.59" r="1.71"/><circle class="cls-8" cx="111.85" cy="267.01" r="1.71"/><circle class="cls-8" cx="108.91" cy="275.42" r="1.71"/><circle class="cls-8" cx="105.97" cy="283.84" r="1.71"/><circle class="cls-8" cx="103.03" cy="292.26" r="1.71"/><circle class="cls-8" cx="100.09" cy="300.68" r="1.71"/><circle class="cls-8" cx="97.15" cy="309.1" r="1.71"/><circle class="cls-8" cx="94.21" cy="317.51" r="1.71"/><circle class="cls-8" cx="91.27" cy="325.93" r="1.71"/><circle class="cls-8" cx="88.33" cy="334.35" r="1.71"/><circle class="cls-8" cx="85.39" cy="342.77" r="1.71"/><circle class="cls-8" cx="82.45" cy="351.19" r="1.71"/><circle class="cls-8" cx="79.51" cy="359.6" r="1.71"/><circle class="cls-8" cx="76.58" cy="368.02" r="1.71"/><circle class="cls-8" cx="73.64" cy="376.44" r="1.71"/><circle class="cls-8" cx="70.7" cy="384.86" r="1.71"/></g></g><g><circle class="cls-8" cx="42.49" cy="384.49" r="1.71"/><circle class="cls-8" cx="39.55" cy="392.91" r="1.71"/><circle class="cls-8" cx="36.61" cy="401.32" r="1.71"/><circle class="cls-8" cx="33.67" cy="409.74" r="1.71"/><circle class="cls-8" cx="30.73" cy="418.16" r="1.71"/><circle class="cls-8" cx="27.79" cy="426.58" r="1.71"/><circle class="cls-8" cx="24.86" cy="435" r="1.71"/><circle class="cls-8" cx="21.92" cy="443.41" r="1.71"/><circle class="cls-8" cx="18.98" cy="451.83" r="1.71"/><circle class="cls-8" cx="16.04" cy="460.25" r="1.71"/><circle class="cls-8" cx="13.1" cy="468.67" r="1.71"/><circle class="cls-8" cx="10.16" cy="477.09" r="1.71"/><circle class="cls-8" cx="7.22" cy="485.5" r="1.71"/><circle class="cls-8" cx="4.28" cy="493.92" r="1.71"/><circle class="cls-8" cx="1.34" cy="502.34" r="1.71"/><circle class="cls-8" cx="50.91" cy="387.43" r="1.71"/><circle class="cls-8" cx="47.97" cy="395.85" r="1.71"/><circle class="cls-8" cx="45.03" cy="404.26" r="1.71"/><circle class="cls-8" cx="42.09" cy="412.68" r="1.71"/><circle class="cls-8" cx="39.15" cy="421.1" r="1.71"/><circle class="cls-8" cx="36.21" cy="429.52" r="1.71"/><circle class="cls-8" cx="33.27" cy="437.94" r="1.71"/><circle class="cls-8" cx="30.33" cy="446.35" r="1.71"/><circle class="cls-8" cx="27.39" cy="454.77" r="1.71"/><circle class="cls-8" cx="24.45" cy="463.19" r="1.71"/><circle class="cls-8" cx="21.52" cy="471.61" r="1.71"/><circle class="cls-8" cx="18.58" cy="480.03" r="1.71"/><circle class="cls-8" cx="15.64" cy="488.44" r="1.71"/><circle class="cls-8" cx="12.7" cy="496.86" r="1.71"/><circle class="cls-8" cx="9.76" cy="505.28" r="1.71"/><circle class="cls-8" cx="59.33" cy="390.37" r="1.71"/><circle class="cls-8" cx="56.39" cy="398.78" r="1.71"/><circle class="cls-8" cx="53.45" cy="407.2" r="1.71"/><circle class="cls-8" cx="50.51" cy="415.62" r="1.71"/><circle class="cls-8" cx="47.57" cy="424.04" r="1.71"/><circle class="cls-8" cx="44.63" cy="432.46" r="1.71"/><circle class="cls-8" cx="41.69" cy="440.88" r="1.71"/><circle class="cls-8" cx="38.75" cy="449.29" r="1.71"/><circle class="cls-8" cx="35.81" cy="457.71" r="1.71"/><circle class="cls-8" cx="32.87" cy="466.13" r="1.71"/><circle class="cls-8" cx="29.93" cy="474.55" r="1.71"/><circle class="cls-8" cx="26.99" cy="482.97" r="1.71"/><circle class="cls-8" cx="24.05" cy="491.38" r="1.71"/><circle class="cls-8" cx="21.11" cy="499.8" r="1.71"/><circle class="cls-8" cx="18.18" cy="508.22" r="1.71"/><circle class="cls-8" cx="67.75" cy="393.31" r="1.71"/><circle class="cls-8" cx="64.81" cy="401.72" r="1.71"/><circle class="cls-8" cx="61.87" cy="410.14" r="1.71"/><circle class="cls-8" cx="58.93" cy="418.56" r="1.71"/><circle class="cls-8" cx="55.99" cy="426.98" r="1.71"/><circle class="cls-8" cx="53.05" cy="435.4" r="1.71"/><circle class="cls-8" cx="50.11" cy="443.81" r="1.71"/><circle class="cls-8" cx="47.17" cy="452.23" r="1.71"/><circle class="cls-8" cx="44.23" cy="460.65" r="1.71"/><circle class="cls-8" cx="41.29" cy="469.07" r="1.71"/><circle class="cls-8" cx="38.35" cy="477.49" r="1.71"/><circle class="cls-8" cx="35.41" cy="485.91" r="1.71"/><circle class="cls-8" cx="32.47" cy="494.32" r="1.71"/><circle class="cls-8" cx="29.53" cy="502.74" r="1.71"/><circle class="cls-8" cx="26.59" cy="511.16" r="1.71"/></g></g><g><circle class="cls-8" cx="64.44" cy="241" r="1.71"/><circle class="cls-8" cx="61.5" cy="249.42" r="1.71"/><circle class="cls-8" cx="58.56" cy="257.84" r="1.71"/><circle class="cls-8" cx="55.62" cy="266.26" r="1.71"/><circle class="cls-8" cx="52.68" cy="274.68" r="1.71"/><circle class="cls-8" cx="49.74" cy="283.1" r="1.71"/><circle class="cls-8" cx="46.8" cy="291.51" r="1.71"/><circle class="cls-8" cx="43.86" cy="299.93" r="1.71"/><circle class="cls-8" cx="40.92" cy="308.35" r="1.71"/><circle class="cls-8" cx="37.98" cy="316.77" r="1.71"/><circle class="cls-8" cx="35.04" cy="325.19" r="1.71"/><circle class="cls-8" cx="32.1" cy="333.6" r="1.71"/><circle class="cls-8" cx="29.16" cy="342.02" r="1.71"/><circle class="cls-8" cx="26.22" cy="350.44" r="1.71"/><circle class="cls-8" cx="23.28" cy="358.86" r="1.71"/><circle class="cls-8" cx="20.34" cy="367.28" r="1.71"/></g><g><circle class="cls-8" cx="72.85" cy="243.94" r="1.71"/><circle class="cls-8" cx="69.91" cy="252.36" r="1.71"/><circle class="cls-8" cx="66.98" cy="260.78" r="1.71"/><circle class="cls-8" cx="64.04" cy="269.2" r="1.71"/><circle class="cls-8" cx="61.1" cy="277.62" r="1.71"/><circle class="cls-8" cx="58.16" cy="286.03" r="1.71"/><circle class="cls-8" cx="55.22" cy="294.45" r="1.71"/><circle class="cls-8" cx="52.28" cy="302.87" r="1.71"/><circle class="cls-8" cx="49.34" cy="311.29" r="1.71"/><circle class="cls-8" cx="46.4" cy="319.71" r="1.71"/><circle class="cls-8" cx="43.46" cy="328.13" r="1.71"/><circle class="cls-8" cx="40.52" cy="336.54" r="1.71"/><circle class="cls-8" cx="37.58" cy="344.96" r="1.71"/><circle class="cls-8" cx="34.64" cy="353.38" r="1.71"/><circle class="cls-8" cx="31.7" cy="361.8" r="1.71"/><circle class="cls-8" cx="28.76" cy="370.22" r="1.71"/></g><g><circle class="cls-8" cx="81.27" cy="246.88" r="1.71"/><circle class="cls-8" cx="78.33" cy="255.3" r="1.71"/><circle class="cls-8" cx="75.39" cy="263.72" r="1.71"/><circle class="cls-8" cx="72.45" cy="272.14" r="1.71"/><circle class="cls-8" cx="69.51" cy="280.56" r="1.71"/><circle class="cls-8" cx="66.57" cy="288.97" r="1.71"/><circle class="cls-8" cx="63.64" cy="297.39" r="1.71"/><circle class="cls-8" cx="60.7" cy="305.81" r="1.71"/><circle class="cls-8" cx="57.76" cy="314.23" r="1.71"/><circle class="cls-8" cx="54.82" cy="322.65" r="1.71"/><circle class="cls-8" cx="51.88" cy="331.07" r="1.71"/><circle class="cls-8" cx="48.94" cy="339.48" r="1.71"/><circle class="cls-8" cx="46" cy="347.9" r="1.71"/><circle class="cls-8" cx="43.06" cy="356.32" r="1.71"/><circle class="cls-8" cx="40.12" cy="364.74" r="1.71"/><circle class="cls-8" cx="37.18" cy="373.16" r="1.71"/></g><g><circle class="cls-8" cx="89.69" cy="249.82" r="1.71"/><circle class="cls-8" cx="86.75" cy="258.24" r="1.71"/><circle class="cls-8" cx="83.81" cy="266.66" r="1.71"/><circle class="cls-8" cx="80.87" cy="275.08" r="1.71"/><circle class="cls-8" cx="77.93" cy="283.5" r="1.71"/><circle class="cls-8" cx="74.99" cy="291.91" r="1.71"/><circle class="cls-8" cx="72.05" cy="300.33" r="1.71"/><circle class="cls-8" cx="69.11" cy="308.75" r="1.71"/><circle class="cls-8" cx="66.17" cy="317.17" r="1.71"/><circle class="cls-8" cx="63.23" cy="325.59" r="1.71"/><circle class="cls-8" cx="60.3" cy="334" r="1.71"/><circle class="cls-8" cx="57.36" cy="342.42" r="1.71"/><circle class="cls-8" cx="54.42" cy="350.84" r="1.71"/><circle class="cls-8" cx="51.48" cy="359.26" r="1.71"/><circle class="cls-8" cx="48.54" cy="367.68" r="1.71"/><circle class="cls-8" cx="45.6" cy="376.1" r="1.71"/></g><circle class="cls-8" cx="17.39" cy="375.72" r="1.71"/><circle class="cls-8" cx="14.45" cy="384.14" r="1.71"/><circle class="cls-8" cx="11.51" cy="392.56" r="1.71"/><circle class="cls-8" cx="8.58" cy="400.98" r="1.71"/><circle class="cls-8" cx="5.64" cy="409.4" r="1.71"/><circle class="cls-8" cx="2.7" cy="417.81" r="1.71"/><circle class="cls-8" cx="-.24" cy="426.23" r="1.71"/><circle class="cls-8" cx="25.81" cy="378.66" r="1.71"/><circle class="cls-8" cx="22.87" cy="387.08" r="1.71"/><circle class="cls-8" cx="19.93" cy="395.5" r="1.71"/><circle class="cls-8" cx="16.99" cy="403.92" r="1.71"/><circle class="cls-8" cx="14.05" cy="412.34" r="1.71"/><circle class="cls-8" cx="11.11" cy="420.75" r="1.71"/><circle class="cls-8" cx="8.17" cy="429.17" r="1.71"/><circle class="cls-8" cx="5.24" cy="437.59" r="1.71"/><circle class="cls-8" cx="2.3" cy="446.01" r="1.71"/><circle class="cls-8" cx="-.64" cy="454.43" r="1.71"/><circle class="cls-8" cx="34.23" cy="381.6" r="1.71"/><circle class="cls-8" cx="31.29" cy="390.02" r="1.71"/><circle class="cls-8" cx="28.35" cy="398.44" r="1.71"/><circle class="cls-8" cx="25.41" cy="406.86" r="1.71"/><circle class="cls-8" cx="22.47" cy="415.27" r="1.71"/><circle class="cls-8" cx="19.53" cy="423.69" r="1.71"/><circle class="cls-8" cx="16.59" cy="432.11" r="1.71"/><circle class="cls-8" cx="13.65" cy="440.53" r="1.71"/><circle class="cls-8" cx="10.71" cy="448.95" r="1.71"/><circle class="cls-8" cx="7.77" cy="457.37" r="1.71"/><circle class="cls-8" cx="4.83" cy="465.78" r="1.71"/><circle class="cls-8" cx="1.9" cy="474.2" r="1.71"/><circle class="cls-8" cx="-1.04" cy="482.62" r="1.71"/><circle class="cls-8" cx="42.65" cy="384.54" r="1.71"/><circle class="cls-8" cx="39.71" cy="392.96" r="1.71"/><circle class="cls-8" cx="36.77" cy="401.38" r="1.71"/><circle class="cls-8" cx="33.83" cy="409.8" r="1.71"/><circle class="cls-8" cx="30.89" cy="418.21" r="1.71"/><circle class="cls-8" cx="27.95" cy="426.63" r="1.71"/><circle class="cls-8" cx="25.01" cy="435.05" r="1.71"/><circle class="cls-8" cx="22.07" cy="443.47" r="1.71"/><circle class="cls-8" cx="19.13" cy="451.89" r="1.71"/><circle class="cls-8" cx="16.19" cy="460.31" r="1.71"/><circle class="cls-8" cx="13.25" cy="468.72" r="1.71"/><circle class="cls-8" cx="10.31" cy="477.14" r="1.71"/><circle class="cls-8" cx="7.37" cy="485.56" r="1.71"/><circle class="cls-8" cx="4.43" cy="493.98" r="1.71"/><circle class="cls-8" cx="1.49" cy="502.4" r="1.71"/></g></g></g><g><g><polygon class="cls-2" points="597.41 432.68 619.5 464.33 619.09 540.66 595.45 516.33 597.41 432.68"/><path class="cls-12" d="M621.08,545.59l-27.66-28.46,2.12-90.63,25.97,37.21v.64s-.43,81.25-.43,81.25Zm-23.6-30.05l19.63,20.2,.37-70.78-18.21-26.08-1.8,76.66Z"/></g><g><polygon class="cls-9" points="621.22 545.09 163.27 546.7 131.72 519.33 595.56 519.33 621.22 545.09"/><path class="cls-12" d="M593.89,523.36l17.68,17.74-446.8,1.57-22.26-19.31h451.39m1.67-4.02H131.72l31.55,27.36,457.95-1.61-25.66-25.75h0Z"/></g><g class="cls-3"><g><g><g><g><circle class="cls-11" cx="567.79" cy="359.9" r="1.71"/><circle class="cls-11" cx="570.73" cy="368.32" r="1.71"/><circle class="cls-11" cx="573.67" cy="376.73" r="1.71"/><circle class="cls-11" cx="576.61" cy="385.15" r="1.71"/><circle class="cls-11" cx="579.55" cy="393.57" r="1.71"/><circle class="cls-11" cx="582.49" cy="401.99" r="1.71"/><circle class="cls-11" cx="585.43" cy="410.41" r="1.71"/><circle class="cls-11" cx="588.37" cy="418.82" r="1.71"/><circle class="cls-11" cx="591.31" cy="427.24" r="1.71"/><circle class="cls-11" cx="594.25" cy="435.66" r="1.71"/><circle class="cls-11" cx="597.19" cy="444.08" r="1.71"/><circle class="cls-11" cx="600.13" cy="452.5" r="1.71"/><circle class="cls-11" cx="603.07" cy="460.91" r="1.71"/><circle class="cls-11" cx="606.01" cy="469.33" r="1.71"/><circle class="cls-11" cx="608.95" cy="477.75" r="1.71"/><circle class="cls-11" cx="611.89" cy="486.17" r="1.71"/></g><g><circle class="cls-11" cx="559.37" cy="362.84" r="1.71"/><circle class="cls-11" cx="562.31" cy="371.25" r="1.71"/><circle class="cls-11" cx="565.25" cy="379.67" r="1.71"/><circle class="cls-11" cx="568.19" cy="388.09" r="1.71"/><circle class="cls-11" cx="571.13" cy="396.51" r="1.71"/><circle class="cls-11" cx="574.07" cy="404.93" r="1.71"/><circle class="cls-11" cx="577.01" cy="413.35" r="1.71"/><circle class="cls-11" cx="579.95" cy="421.76" r="1.71"/><circle class="cls-11" cx="582.89" cy="430.18" r="1.71"/><circle class="cls-11" cx="585.83" cy="438.6" r="1.71"/><circle class="cls-11" cx="588.77" cy="447.02" r="1.71"/><circle class="cls-11" cx="591.71" cy="455.44" r="1.71"/><circle class="cls-11" cx="594.65" cy="463.85" r="1.71"/><circle class="cls-11" cx="597.59" cy="472.27" r="1.71"/><circle class="cls-11" cx="600.53" cy="480.69" r="1.71"/><circle class="cls-11" cx="603.47" cy="489.11" r="1.71"/></g><g><circle class="cls-11" cx="550.96" cy="365.78" r="1.71"/><circle class="cls-11" cx="553.9" cy="374.19" r="1.71"/><circle class="cls-11" cx="556.84" cy="382.61" r="1.71"/><circle class="cls-11" cx="559.78" cy="391.03" r="1.71"/><circle class="cls-11" cx="562.71" cy="399.45" r="1.71"/><circle class="cls-11" cx="565.65" cy="407.87" r="1.71"/><circle class="cls-11" cx="568.59" cy="416.29" r="1.71"/><circle class="cls-11" cx="571.53" cy="424.7" r="1.71"/><circle class="cls-11" cx="574.47" cy="433.12" r="1.71"/><circle class="cls-11" cx="577.41" cy="441.54" r="1.71"/><circle class="cls-11" cx="580.35" cy="449.96" r="1.71"/><circle class="cls-11" cx="583.29" cy="458.38" r="1.71"/><circle class="cls-11" cx="586.23" cy="466.79" r="1.71"/><circle class="cls-11" cx="589.17" cy="475.21" r="1.71"/><circle class="cls-11" cx="592.11" cy="483.63" r="1.71"/><circle class="cls-11" cx="595.05" cy="492.05" r="1.71"/></g><g><circle class="cls-11" cx="542.54" cy="368.72" r="1.71"/><circle class="cls-11" cx="545.48" cy="377.13" r="1.71"/><circle class="cls-11" cx="548.42" cy="385.55" r="1.71"/><circle class="cls-11" cx="551.36" cy="393.97" r="1.71"/><circle class="cls-11" cx="554.3" cy="402.39" r="1.71"/><circle class="cls-11" cx="557.24" cy="410.81" r="1.71"/><circle class="cls-11" cx="560.18" cy="419.22" r="1.71"/><circle class="cls-11" cx="563.12" cy="427.64" r="1.71"/><circle class="cls-11" cx="566.05" cy="436.06" r="1.71"/><circle class="cls-11" cx="568.99" cy="444.48" r="1.71"/><circle class="cls-11" cx="571.93" cy="452.9" r="1.71"/><circle class="cls-11" cx="574.87" cy="461.32" r="1.71"/><circle class="cls-11" cx="577.81" cy="469.73" r="1.71"/><circle class="cls-11" cx="580.75" cy="478.15" r="1.71"/><circle class="cls-11" cx="583.69" cy="486.57" r="1.71"/><circle class="cls-11" cx="586.63" cy="494.99" r="1.71"/></g></g><g><circle class="cls-11" cx="614.84" cy="494.62" r="1.71"/><circle class="cls-11" cx="617.77" cy="503.03" r="1.71"/><circle class="cls-11" cx="620.71" cy="511.45" r="1.71"/><circle class="cls-11" cx="623.65" cy="519.87" r="1.71"/><circle class="cls-11" cx="606.42" cy="497.56" r="1.71"/><circle class="cls-11" cx="609.36" cy="505.97" r="1.71"/><circle class="cls-11" cx="612.3" cy="514.39" r="1.71"/><circle class="cls-11" cx="615.24" cy="522.81" r="1.71"/><circle class="cls-11" cx="618.18" cy="531.23" r="1.71"/><circle class="cls-11" cx="621.11" cy="539.65" r="1.71"/><circle class="cls-11" cx="624.05" cy="548.06" r="1.71"/><circle class="cls-11" cx="598" cy="500.49" r="1.71"/><circle class="cls-11" cx="600.94" cy="508.91" r="1.71"/><circle class="cls-11" cx="603.88" cy="517.33" r="1.71"/><circle class="cls-11" cx="606.82" cy="525.75" r="1.71"/><circle class="cls-11" cx="609.76" cy="534.17" r="1.71"/><circle class="cls-11" cx="612.7" cy="542.59" r="1.71"/><circle class="cls-11" cx="615.64" cy="551" r="1.71"/><circle class="cls-11" cx="618.58" cy="559.42" r="1.71"/><circle class="cls-11" cx="621.52" cy="567.84" r="1.71"/><circle class="cls-11" cx="624.45" cy="576.26" r="1.71"/><circle class="cls-11" cx="589.58" cy="503.43" r="1.71"/><circle class="cls-11" cx="592.52" cy="511.85" r="1.71"/><circle class="cls-11" cx="595.46" cy="520.27" r="1.71"/><circle class="cls-11" cx="598.4" cy="528.69" r="1.71"/><circle class="cls-11" cx="601.34" cy="537.11" r="1.71"/><circle class="cls-11" cx="604.28" cy="545.53" r="1.71"/><circle class="cls-11" cx="607.22" cy="553.94" r="1.71"/><circle class="cls-11" cx="610.16" cy="562.36" r="1.71"/><circle class="cls-11" cx="613.1" cy="570.78" r="1.71"/><circle class="cls-11" cx="616.04" cy="579.2" r="1.71"/><circle class="cls-11" cx="618.98" cy="587.62" r="1.71"/><circle class="cls-11" cx="621.92" cy="596.03" r="1.71"/><circle class="cls-11" cx="624.86" cy="604.45" r="1.71"/></g></g><g><circle class="cls-11" cx="592.89" cy="351.13" r="1.71"/><circle class="cls-11" cx="595.83" cy="359.55" r="1.71"/><circle class="cls-11" cx="598.77" cy="367.97" r="1.71"/><circle class="cls-11" cx="601.71" cy="376.39" r="1.71"/><circle class="cls-11" cx="604.65" cy="384.81" r="1.71"/><circle class="cls-11" cx="607.59" cy="393.22" r="1.71"/><circle class="cls-11" cx="610.53" cy="401.64" r="1.71"/><circle class="cls-11" cx="613.47" cy="410.06" r="1.71"/><circle class="cls-11" cx="616.41" cy="418.48" r="1.71"/><circle class="cls-11" cx="619.35" cy="426.9" r="1.71"/><circle class="cls-11" cx="622.29" cy="435.31" r="1.71"/><circle class="cls-11" cx="625.23" cy="443.73" r="1.71"/></g><g><circle class="cls-11" cx="584.47" cy="354.07" r="1.71"/><circle class="cls-11" cx="587.41" cy="362.49" r="1.71"/><circle class="cls-11" cx="590.35" cy="370.91" r="1.71"/><circle class="cls-11" cx="593.29" cy="379.33" r="1.71"/><circle class="cls-11" cx="596.23" cy="387.75" r="1.71"/><circle class="cls-11" cx="599.17" cy="396.16" r="1.71"/><circle class="cls-11" cx="602.11" cy="404.58" r="1.71"/><circle class="cls-11" cx="605.05" cy="413" r="1.71"/><circle class="cls-11" cx="607.99" cy="421.42" r="1.71"/><circle class="cls-11" cx="610.93" cy="429.84" r="1.71"/><circle class="cls-11" cx="613.87" cy="438.25" r="1.71"/><circle class="cls-11" cx="616.81" cy="446.67" r="1.71"/><circle class="cls-11" cx="619.75" cy="455.09" r="1.71"/><circle class="cls-11" cx="622.69" cy="463.51" r="1.71"/><circle class="cls-11" cx="625.63" cy="471.93" r="1.71"/></g><g><circle class="cls-11" cx="576.06" cy="357.01" r="1.71"/><circle class="cls-11" cx="578.99" cy="365.43" r="1.71"/><circle class="cls-11" cx="581.93" cy="373.85" r="1.71"/><circle class="cls-11" cx="584.87" cy="382.27" r="1.71"/><circle class="cls-11" cx="587.81" cy="390.68" r="1.71"/><circle class="cls-11" cx="590.75" cy="399.1" r="1.71"/><circle class="cls-11" cx="593.69" cy="407.52" r="1.71"/><circle class="cls-11" cx="596.63" cy="415.94" r="1.71"/><circle class="cls-11" cx="599.57" cy="424.36" r="1.71"/><circle class="cls-11" cx="602.51" cy="432.78" r="1.71"/><circle class="cls-11" cx="605.45" cy="441.19" r="1.71"/><circle class="cls-11" cx="608.39" cy="449.61" r="1.71"/><circle class="cls-11" cx="611.33" cy="458.03" r="1.71"/><circle class="cls-11" cx="614.27" cy="466.45" r="1.71"/><circle class="cls-11" cx="617.21" cy="474.87" r="1.71"/><circle class="cls-11" cx="620.15" cy="483.28" r="1.71"/></g><g><circle class="cls-11" cx="567.64" cy="359.95" r="1.71"/><circle class="cls-11" cx="570.58" cy="368.37" r="1.71"/><circle class="cls-11" cx="573.52" cy="376.79" r="1.71"/><circle class="cls-11" cx="576.46" cy="385.21" r="1.71"/><circle class="cls-11" cx="579.4" cy="393.62" r="1.71"/><circle class="cls-11" cx="582.33" cy="402.04" r="1.71"/><circle class="cls-11" cx="585.27" cy="410.46" r="1.71"/><circle class="cls-11" cx="588.21" cy="418.88" r="1.71"/><circle class="cls-11" cx="591.15" cy="427.3" r="1.71"/><circle class="cls-11" cx="594.09" cy="435.71" r="1.71"/><circle class="cls-11" cx="597.03" cy="444.13" r="1.71"/><circle class="cls-11" cx="599.97" cy="452.55" r="1.71"/><circle class="cls-11" cx="602.91" cy="460.97" r="1.71"/><circle class="cls-11" cx="605.85" cy="469.39" r="1.71"/><circle class="cls-11" cx="608.79" cy="477.81" r="1.71"/><circle class="cls-11" cx="611.73" cy="486.22" r="1.71"/></g><circle class="cls-11" cx="623.1" cy="491.73" r="1.71"/><circle class="cls-11" cx="614.68" cy="494.67" r="1.71"/><circle class="cls-11" cx="617.62" cy="503.09" r="1.71"/><circle class="cls-11" cx="620.56" cy="511.51" r="1.71"/><circle class="cls-11" cx="623.5" cy="519.92" r="1.71"/></g></g><g><rect class="cls-2" x="133.35" y="428.52" width="461.55" height="90.41"/><path class="cls-12" d="M596.91,520.94H131.34v-94.44h465.58v94.44Zm-461.55-4.02h457.53v-86.39H135.36v86.39Z"/></g></g><g><g><polygon class="cls-9" points="583.13 667.47 136.58 667.47 136.58 587.9 165.71 545.25 618.3 624.82 583.13 667.47"/><path class="cls-12" d="M584.08,669.49H134.57v-82.21l30.22-44.24,1.28,.22,455.99,80.17-37.97,46.05Zm-445.49-4.02h443.59l32.37-39.26-447.91-78.75-28.05,41.07v76.94Z"/></g><g><polygon class="cls-2" points="585.14 666.67 138.59 666.67 170.92 623.91 619.91 624.82 585.14 666.67"/><path class="cls-12" d="M586.08,668.68H134.55l35.38-46.79h1s453.26,.93,453.26,.93l-38.1,45.86Zm-443.45-4.02h441.56l31.43-37.83-443.7-.91-29.29,38.74Z"/></g><g class="cls-7"><g><circle class="cls-11" cx="138.91" cy="604.29" r="1.98"/><circle class="cls-11" cx="149.24" cy="604.29" r="1.98"/><circle class="cls-11" cx="159.58" cy="604.29" r="1.98"/><circle class="cls-11" cx="169.92" cy="604.29" r="1.98"/><circle class="cls-11" cx="180.26" cy="604.29" r="1.98"/><circle class="cls-11" cx="190.6" cy="604.29" r="1.98"/><circle class="cls-11" cx="200.94" cy="604.29" r="1.98"/><circle class="cls-11" cx="211.28" cy="604.29" r="1.98"/><circle class="cls-11" cx="221.62" cy="604.29" r="1.98"/><circle class="cls-11" cx="231.96" cy="604.29" r="1.98"/><circle class="cls-11" cx="242.3" cy="604.29" r="1.98"/><circle class="cls-11" cx="252.63" cy="604.29" r="1.98"/><circle class="cls-11" cx="262.97" cy="604.29" r="1.98"/><circle class="cls-11" cx="273.31" cy="604.29" r="1.98"/><circle class="cls-11" cx="283.65" cy="604.29" r="1.98"/><circle class="cls-11" cx="293.99" cy="604.29" r="1.98"/><circle class="cls-11" cx="304.33" cy="604.29" r="1.98"/><circle class="cls-11" cx="314.67" cy="604.29" r="1.98"/><circle class="cls-11" cx="325.01" cy="604.29" r="1.98"/><circle class="cls-11" cx="335.35" cy="604.29" r="1.98"/><circle class="cls-11" cx="345.69" cy="604.29" r="1.98"/><circle class="cls-11" cx="356.03" cy="604.29" r="1.98"/><circle class="cls-11" cx="366.36" cy="604.29" r="1.98"/><circle class="cls-11" cx="376.7" cy="604.29" r="1.98"/><circle class="cls-11" cx="387.04" cy="604.29" r="1.98"/><circle class="cls-11" cx="397.38" cy="604.29" r="1.98"/><circle class="cls-11" cx="407.72" cy="604.29" r="1.98"/><circle class="cls-11" cx="418.06" cy="604.29" r="1.98"/><circle class="cls-11" cx="428.4" cy="604.29" r="1.98"/><circle class="cls-11" cx="438.74" cy="604.29" r="1.98"/><circle class="cls-11" cx="449.08" cy="604.29" r="1.98"/><circle class="cls-11" cx="459.42" cy="604.29" r="1.98"/><circle class="cls-11" cx="469.75" cy="604.29" r="1.98"/><circle class="cls-11" cx="480.09" cy="604.29" r="1.98"/><circle class="cls-11" cx="138.91" cy="614.63" r="1.98"/><circle class="cls-11" cx="149.24" cy="614.63" r="1.98"/><circle class="cls-11" cx="159.58" cy="614.63" r="1.98"/><circle class="cls-11" cx="169.92" cy="614.63" r="1.98"/><circle class="cls-11" cx="180.26" cy="614.63" r="1.98"/><circle class="cls-11" cx="190.6" cy="614.63" r="1.98"/><circle class="cls-11" cx="200.94" cy="614.63" r="1.98"/><circle class="cls-11" cx="211.28" cy="614.63" r="1.98"/><circle class="cls-11" cx="221.62" cy="614.63" r="1.98"/><circle class="cls-11" cx="231.96" cy="614.63" r="1.98"/><circle class="cls-11" cx="242.3" cy="614.63" r="1.98"/><circle class="cls-11" cx="252.63" cy="614.63" r="1.98"/><circle class="cls-11" cx="262.97" cy="614.63" r="1.98"/><circle class="cls-11" cx="273.31" cy="614.63" r="1.98"/><circle class="cls-11" cx="283.65" cy="614.63" r="1.98"/><circle class="cls-11" cx="293.99" cy="614.63" r="1.98"/><circle class="cls-11" cx="304.33" cy="614.63" r="1.98"/><circle class="cls-11" cx="314.67" cy="614.63" r="1.98"/><circle class="cls-11" cx="325.01" cy="614.63" r="1.98"/><circle class="cls-11" cx="335.35" cy="614.63" r="1.98"/><circle class="cls-11" cx="345.69" cy="614.63" r="1.98"/><circle class="cls-11" cx="356.03" cy="614.63" r="1.98"/><circle class="cls-11" cx="366.36" cy="614.63" r="1.98"/><circle class="cls-11" cx="376.7" cy="614.63" r="1.98"/><circle class="cls-11" cx="387.04" cy="614.63" r="1.98"/><circle class="cls-11" cx="397.38" cy="614.63" r="1.98"/><circle class="cls-11" cx="407.72" cy="614.63" r="1.98"/><circle class="cls-11" cx="418.06" cy="614.63" r="1.98"/><circle class="cls-11" cx="428.4" cy="614.63" r="1.98"/><circle class="cls-11" cx="438.74" cy="614.63" r="1.98"/><circle class="cls-11" cx="449.08" cy="614.63" r="1.98"/><circle class="cls-11" cx="459.42" cy="614.63" r="1.98"/><circle class="cls-11" cx="469.75" cy="614.63" r="1.98"/><circle class="cls-11" cx="480.09" cy="614.63" r="1.98"/><circle class="cls-11" cx="138.91" cy="624.97" r="1.98"/><circle class="cls-11" cx="149.24" cy="624.97" r="1.98"/><circle class="cls-11" cx="159.58" cy="624.97" r="1.98"/><circle class="cls-11" cx="169.92" cy="624.97" r="1.98"/><circle class="cls-11" cx="180.26" cy="624.97" r="1.98"/><circle class="cls-11" cx="190.6" cy="624.97" r="1.98"/><circle class="cls-11" cx="200.94" cy="624.97" r="1.98"/><circle class="cls-11" cx="211.28" cy="624.97" r="1.98"/><circle class="cls-11" cx="221.62" cy="624.97" r="1.98"/><circle class="cls-11" cx="231.96" cy="624.97" r="1.98"/><circle class="cls-11" cx="242.3" cy="624.97" r="1.98"/><circle class="cls-11" cx="252.63" cy="624.97" r="1.98"/><circle class="cls-11" cx="262.97" cy="624.97" r="1.98"/><circle class="cls-11" cx="273.31" cy="624.97" r="1.98"/><circle class="cls-11" cx="283.65" cy="624.97" r="1.98"/><circle class="cls-11" cx="293.99" cy="624.97" r="1.98"/><circle class="cls-11" cx="304.33" cy="624.97" r="1.98"/><circle class="cls-11" cx="314.67" cy="624.97" r="1.98"/><circle class="cls-11" cx="325.01" cy="624.97" r="1.98"/><circle class="cls-11" cx="335.35" cy="624.97" r="1.98"/><circle class="cls-11" cx="345.69" cy="624.97" r="1.98"/><circle class="cls-11" cx="356.03" cy="624.97" r="1.98"/><circle class="cls-11" cx="366.36" cy="624.97" r="1.98"/><circle class="cls-11" cx="376.7" cy="624.97" r="1.98"/><circle class="cls-11" cx="387.04" cy="624.97" r="1.98"/><circle class="cls-11" cx="397.38" cy="624.97" r="1.98"/><circle class="cls-11" cx="407.72" cy="624.97" r="1.98"/><circle class="cls-11" cx="418.06" cy="624.97" r="1.98"/><circle class="cls-11" cx="428.4" cy="624.97" r="1.98"/><circle class="cls-11" cx="438.74" cy="624.97" r="1.98"/><circle class="cls-11" cx="449.08" cy="624.97" r="1.98"/><circle class="cls-11" cx="459.42" cy="624.97" r="1.98"/><circle class="cls-11" cx="469.75" cy="624.97" r="1.98"/><circle class="cls-11" cx="480.09" cy="624.97" r="1.98"/><circle class="cls-11" cx="138.91" cy="635.31" r="1.98"/><circle class="cls-11" cx="149.24" cy="635.31" r="1.98"/><circle class="cls-11" cx="159.58" cy="635.31" r="1.98"/><circle class="cls-11" cx="169.92" cy="635.31" r="1.98"/><circle class="cls-11" cx="180.26" cy="635.31" r="1.98"/><circle class="cls-11" cx="190.6" cy="635.31" r="1.98"/><circle class="cls-11" cx="200.94" cy="635.31" r="1.98"/><circle class="cls-11" cx="211.28" cy="635.31" r="1.98"/><circle class="cls-11" cx="221.62" cy="635.31" r="1.98"/><circle class="cls-11" cx="231.96" cy="635.31" r="1.98"/><circle class="cls-11" cx="242.3" cy="635.31" r="1.98"/><circle class="cls-11" cx="252.63" cy="635.31" r="1.98"/><circle class="cls-11" cx="262.97" cy="635.31" r="1.98"/><circle class="cls-11" cx="273.31" cy="635.31" r="1.98"/><circle class="cls-11" cx="283.65" cy="635.31" r="1.98"/><circle class="cls-11" cx="293.99" cy="635.31" r="1.98"/><circle class="cls-11" cx="304.33" cy="635.31" r="1.98"/><circle class="cls-11" cx="314.67" cy="635.31" r="1.98"/><circle class="cls-11" cx="325.01" cy="635.31" r="1.98"/><circle class="cls-11" cx="335.35" cy="635.31" r="1.98"/><circle class="cls-11" cx="345.69" cy="635.31" r="1.98"/><circle class="cls-11" cx="356.03" cy="635.31" r="1.98"/><circle class="cls-11" cx="366.36" cy="635.31" r="1.98"/><circle class="cls-11" cx="376.7" cy="635.31" r="1.98"/><circle class="cls-11" cx="387.04" cy="635.31" r="1.98"/><circle class="cls-11" cx="397.38" cy="635.31" r="1.98"/><circle class="cls-11" cx="407.72" cy="635.31" r="1.98"/><circle class="cls-11" cx="418.06" cy="635.31" r="1.98"/><circle class="cls-11" cx="428.4" cy="635.31" r="1.98"/><circle class="cls-11" cx="438.74" cy="635.31" r="1.98"/><circle class="cls-11" cx="449.08" cy="635.31" r="1.98"/><circle class="cls-11" cx="459.42" cy="635.31" r="1.98"/><circle class="cls-11" cx="469.75" cy="635.31" r="1.98"/><circle class="cls-11" cx="480.09" cy="635.31" r="1.98"/><circle class="cls-11" cx="138.91" cy="645.65" r="1.98"/><circle class="cls-11" cx="149.24" cy="645.65" r="1.98"/><circle class="cls-11" cx="159.58" cy="645.65" r="1.98"/><circle class="cls-11" cx="169.92" cy="645.65" r="1.98"/><circle class="cls-11" cx="180.26" cy="645.65" r="1.98"/><circle class="cls-11" cx="190.6" cy="645.65" r="1.98"/><circle class="cls-11" cx="200.94" cy="645.65" r="1.98"/><circle class="cls-11" cx="211.28" cy="645.65" r="1.98"/><circle class="cls-11" cx="221.62" cy="645.65" r="1.98"/><circle class="cls-11" cx="231.96" cy="645.65" r="1.98"/><circle class="cls-11" cx="242.3" cy="645.65" r="1.98"/><circle class="cls-11" cx="252.63" cy="645.65" r="1.98"/><circle class="cls-11" cx="262.97" cy="645.65" r="1.98"/><circle class="cls-11" cx="273.31" cy="645.65" r="1.98"/><circle class="cls-11" cx="283.65" cy="645.65" r="1.98"/><circle class="cls-11" cx="293.99" cy="645.65" r="1.98"/><circle class="cls-11" cx="304.33" cy="645.65" r="1.98"/><circle class="cls-11" cx="314.67" cy="645.65" r="1.98"/><circle class="cls-11" cx="325.01" cy="645.65" r="1.98"/><circle class="cls-11" cx="335.35" cy="645.65" r="1.98"/><circle class="cls-11" cx="345.69" cy="645.65" r="1.98"/><circle class="cls-11" cx="356.03" cy="645.65" r="1.98"/><circle class="cls-11" cx="366.36" cy="645.65" r="1.98"/><circle class="cls-11" cx="376.7" cy="645.65" r="1.98"/><circle class="cls-11" cx="387.04" cy="645.65" r="1.98"/><circle class="cls-11" cx="397.38" cy="645.65" r="1.98"/><circle class="cls-11" cx="407.72" cy="645.65" r="1.98"/><circle class="cls-11" cx="418.06" cy="645.65" r="1.98"/><circle class="cls-11" cx="428.4" cy="645.65" r="1.98"/><circle class="cls-11" cx="438.74" cy="645.65" r="1.98"/><circle class="cls-11" cx="449.08" cy="645.65" r="1.98"/><circle class="cls-11" cx="459.42" cy="645.65" r="1.98"/><circle class="cls-11" cx="469.75" cy="645.65" r="1.98"/><circle class="cls-11" cx="480.09" cy="645.65" r="1.98"/><circle class="cls-11" cx="138.91" cy="655.99" r="1.98"/><circle class="cls-11" cx="149.24" cy="655.99" r="1.98"/><circle class="cls-11" cx="159.58" cy="655.99" r="1.98"/><circle class="cls-11" cx="169.92" cy="655.99" r="1.98"/><circle class="cls-11" cx="180.26" cy="655.99" r="1.98"/><circle class="cls-11" cx="190.6" cy="655.99" r="1.98"/><circle class="cls-11" cx="200.94" cy="655.99" r="1.98"/><circle class="cls-11" cx="211.28" cy="655.99" r="1.98"/><circle class="cls-11" cx="221.62" cy="655.99" r="1.98"/><circle class="cls-11" cx="231.96" cy="655.99" r="1.98"/><circle class="cls-11" cx="242.3" cy="655.99" r="1.98"/><circle class="cls-11" cx="252.63" cy="655.99" r="1.98"/><circle class="cls-11" cx="262.97" cy="655.99" r="1.98"/><circle class="cls-11" cx="273.31" cy="655.99" r="1.98"/><circle class="cls-11" cx="283.65" cy="655.99" r="1.98"/><circle class="cls-11" cx="293.99" cy="655.99" r="1.98"/><circle class="cls-11" cx="304.33" cy="655.99" r="1.98"/><circle class="cls-11" cx="314.67" cy="655.99" r="1.98"/><circle class="cls-11" cx="325.01" cy="655.99" r="1.98"/><circle class="cls-11" cx="335.35" cy="655.99" r="1.98"/><circle class="cls-11" cx="345.69" cy="655.99" r="1.98"/><circle class="cls-11" cx="356.03" cy="655.99" r="1.98"/><circle class="cls-11" cx="366.36" cy="655.99" r="1.98"/><circle class="cls-11" cx="376.7" cy="655.99" r="1.98"/><circle class="cls-11" cx="387.04" cy="655.99" r="1.98"/><circle class="cls-11" cx="397.38" cy="655.99" r="1.98"/><circle class="cls-11" cx="407.72" cy="655.99" r="1.98"/><circle class="cls-11" cx="418.06" cy="655.99" r="1.98"/><circle class="cls-11" cx="428.4" cy="655.99" r="1.98"/><circle class="cls-11" cx="438.74" cy="655.99" r="1.98"/><circle class="cls-11" cx="449.08" cy="655.99" r="1.98"/><circle class="cls-11" cx="459.42" cy="655.99" r="1.98"/><circle class="cls-11" cx="469.75" cy="655.99" r="1.98"/><circle class="cls-11" cx="480.09" cy="655.99" r="1.98"/><circle class="cls-11" cx="138.91" cy="666.33" r="1.98"/><circle class="cls-11" cx="149.24" cy="666.33" r="1.98"/><circle class="cls-11" cx="159.58" cy="666.33" r="1.98"/><circle class="cls-11" cx="169.92" cy="666.33" r="1.98"/><circle class="cls-11" cx="180.26" cy="666.33" r="1.98"/><circle class="cls-11" cx="190.6" cy="666.33" r="1.98"/><circle class="cls-11" cx="200.94" cy="666.33" r="1.98"/><circle class="cls-11" cx="211.28" cy="666.33" r="1.98"/><circle class="cls-11" cx="221.62" cy="666.33" r="1.98"/><circle class="cls-11" cx="231.96" cy="666.33" r="1.98"/><circle class="cls-11" cx="242.3" cy="666.33" r="1.98"/><circle class="cls-11" cx="252.63" cy="666.33" r="1.98"/><circle class="cls-11" cx="262.97" cy="666.33" r="1.98"/><circle class="cls-11" cx="273.31" cy="666.33" r="1.98"/><circle class="cls-11" cx="283.65" cy="666.33" r="1.98"/><circle class="cls-11" cx="293.99" cy="666.33" r="1.98"/><circle class="cls-11" cx="304.33" cy="666.33" r="1.98"/><circle class="cls-11" cx="314.67" cy="666.33" r="1.98"/><circle class="cls-11" cx="325.01" cy="666.33" r="1.98"/><circle class="cls-11" cx="335.35" cy="666.33" r="1.98"/><circle class="cls-11" cx="345.69" cy="666.33" r="1.98"/><circle class="cls-11" cx="356.03" cy="666.33" r="1.98"/><circle class="cls-11" cx="366.36" cy="666.33" r="1.98"/><circle class="cls-11" cx="376.7" cy="666.33" r="1.98"/><circle class="cls-11" cx="387.04" cy="666.33" r="1.98"/><circle class="cls-11" cx="397.38" cy="666.33" r="1.98"/><circle class="cls-11" cx="407.72" cy="666.33" r="1.98"/><circle class="cls-11" cx="418.06" cy="666.33" r="1.98"/><circle class="cls-11" cx="428.4" cy="666.33" r="1.98"/><circle class="cls-11" cx="438.74" cy="666.33" r="1.98"/><circle class="cls-11" cx="449.08" cy="666.33" r="1.98"/><circle class="cls-11" cx="459.42" cy="666.33" r="1.98"/><circle class="cls-11" cx="469.75" cy="666.33" r="1.98"/><circle class="cls-11" cx="480.09" cy="666.33" r="1.98"/><circle class="cls-11" cx="490.92" cy="604.29" r="1.98"/><circle class="cls-11" cx="501.26" cy="604.29" r="1.98"/><circle class="cls-11" cx="511.6" cy="604.29" r="1.98"/><circle class="cls-11" cx="521.93" cy="604.29" r="1.98"/><circle class="cls-11" cx="532.27" cy="604.29" r="1.98"/><circle class="cls-11" cx="490.92" cy="614.63" r="1.98"/><circle class="cls-11" cx="501.26" cy="614.63" r="1.98"/><circle class="cls-11" cx="511.6" cy="614.63" r="1.98"/><circle class="cls-11" cx="521.93" cy="614.63" r="1.98"/><circle class="cls-11" cx="532.27" cy="614.63" r="1.98"/><circle class="cls-11" cx="490.92" cy="624.97" r="1.98"/><circle class="cls-11" cx="501.26" cy="624.97" r="1.98"/><circle class="cls-11" cx="511.6" cy="624.97" r="1.98"/><circle class="cls-11" cx="521.93" cy="624.97" r="1.98"/><circle class="cls-11" cx="532.27" cy="624.97" r="1.98"/><circle class="cls-11" cx="490.92" cy="635.31" r="1.98"/><circle class="cls-11" cx="501.26" cy="635.31" r="1.98"/><circle class="cls-11" cx="511.6" cy="635.31" r="1.98"/><circle class="cls-11" cx="521.93" cy="635.31" r="1.98"/><circle class="cls-11" cx="532.27" cy="635.31" r="1.98"/><circle class="cls-11" cx="490.92" cy="645.65" r="1.98"/><circle class="cls-11" cx="501.26" cy="645.65" r="1.98"/><circle class="cls-11" cx="511.6" cy="645.65" r="1.98"/><circle class="cls-11" cx="521.93" cy="645.65" r="1.98"/><circle class="cls-11" cx="532.27" cy="645.65" r="1.98"/><circle class="cls-11" cx="490.92" cy="655.99" r="1.98"/><circle class="cls-11" cx="501.26" cy="655.99" r="1.98"/><circle class="cls-11" cx="511.6" cy="655.99" r="1.98"/><circle class="cls-11" cx="521.93" cy="655.99" r="1.98"/><circle class="cls-11" cx="532.27" cy="655.99" r="1.98"/><circle class="cls-11" cx="490.92" cy="666.33" r="1.98"/><circle class="cls-11" cx="501.26" cy="666.33" r="1.98"/><circle class="cls-11" cx="511.6" cy="666.33" r="1.98"/><circle class="cls-11" cx="521.93" cy="666.33" r="1.98"/><circle class="cls-11" cx="532.27" cy="666.33" r="1.98"/><circle class="cls-11" cx="542.58" cy="604.29" r="1.98"/><circle class="cls-11" cx="552.92" cy="604.29" r="1.98"/><circle class="cls-11" cx="563.25" cy="604.29" r="1.98"/><circle class="cls-11" cx="573.59" cy="604.29" r="1.98"/><circle class="cls-11" cx="542.58" cy="614.63" r="1.98"/><circle class="cls-11" cx="552.92" cy="614.63" r="1.98"/><circle class="cls-11" cx="563.25" cy="614.63" r="1.98"/><circle class="cls-11" cx="573.59" cy="614.63" r="1.98"/><circle class="cls-11" cx="542.58" cy="624.97" r="1.98"/><circle class="cls-11" cx="552.92" cy="624.97" r="1.98"/><circle class="cls-11" cx="563.25" cy="624.97" r="1.98"/><circle class="cls-11" cx="573.59" cy="624.97" r="1.98"/><circle class="cls-11" cx="542.58" cy="635.31" r="1.98"/><circle class="cls-11" cx="552.92" cy="635.31" r="1.98"/><circle class="cls-11" cx="563.25" cy="635.31" r="1.98"/><circle class="cls-11" cx="573.59" cy="635.31" r="1.98"/><circle class="cls-11" cx="542.58" cy="645.65" r="1.98"/><circle class="cls-11" cx="552.92" cy="645.65" r="1.98"/><circle class="cls-11" cx="563.25" cy="645.65" r="1.98"/><circle class="cls-11" cx="573.59" cy="645.65" r="1.98"/><circle class="cls-11" cx="542.58" cy="655.99" r="1.98"/><circle class="cls-11" cx="552.92" cy="655.99" r="1.98"/><circle class="cls-11" cx="563.25" cy="655.99" r="1.98"/><circle class="cls-11" cx="573.59" cy="655.99" r="1.98"/><circle class="cls-11" cx="542.58" cy="666.33" r="1.98"/><circle class="cls-11" cx="552.92" cy="666.33" r="1.98"/><circle class="cls-11" cx="563.25" cy="666.33" r="1.98"/><circle class="cls-11" cx="573.59" cy="666.33" r="1.98"/><circle class="cls-11" cx="584.42" cy="604.29" r="1.98"/><circle class="cls-11" cx="594.76" cy="604.29" r="1.98"/><circle class="cls-11" cx="605.1" cy="604.29" r="1.98"/><circle class="cls-11" cx="615.43" cy="604.29" r="1.98"/><circle class="cls-11" cx="625.77" cy="604.29" r="1.98"/><circle class="cls-11" cx="584.42" cy="614.63" r="1.98"/><circle class="cls-11" cx="594.76" cy="614.63" r="1.98"/><circle class="cls-11" cx="605.1" cy="614.63" r="1.98"/><circle class="cls-11" cx="615.43" cy="614.63" r="1.98"/><circle class="cls-11" cx="625.77" cy="614.63" r="1.98"/><circle class="cls-11" cx="584.42" cy="624.97" r="1.98"/><circle class="cls-11" cx="594.76" cy="624.97" r="1.98"/><circle class="cls-11" cx="605.1" cy="624.97" r="1.98"/><circle class="cls-11" cx="615.43" cy="624.97" r="1.98"/><circle class="cls-11" cx="625.77" cy="624.97" r="1.98"/><circle class="cls-11" cx="584.42" cy="635.31" r="1.98"/><circle class="cls-11" cx="594.76" cy="635.31" r="1.98"/><circle class="cls-11" cx="605.1" cy="635.31" r="1.98"/><circle class="cls-11" cx="615.43" cy="635.31" r="1.98"/><circle class="cls-11" cx="625.77" cy="635.31" r="1.98"/><circle class="cls-11" cx="584.42" cy="645.65" r="1.98"/><circle class="cls-11" cx="594.76" cy="645.65" r="1.98"/><circle class="cls-11" cx="605.1" cy="645.65" r="1.98"/><circle class="cls-11" cx="615.43" cy="645.65" r="1.98"/><circle class="cls-11" cx="625.77" cy="645.65" r="1.98"/><circle class="cls-11" cx="584.42" cy="655.99" r="1.98"/><circle class="cls-11" cx="594.76" cy="655.99" r="1.98"/><circle class="cls-11" cx="605.1" cy="655.99" r="1.98"/><circle class="cls-11" cx="615.43" cy="655.99" r="1.98"/><circle class="cls-11" cx="625.77" cy="655.99" r="1.98"/><circle class="cls-11" cx="584.42" cy="666.33" r="1.98"/><circle class="cls-11" cx="594.76" cy="666.33" r="1.98"/><circle class="cls-11" cx="605.1" cy="666.33" r="1.98"/><circle class="cls-11" cx="615.43" cy="666.33" r="1.98"/><circle class="cls-11" cx="625.77" cy="666.33" r="1.98"/></g></g><g><rect class="cls-2" x="165.71" y="545.25" width="454.19" height="79.57" transform="translate(785.62 1170.07) rotate(-180)"/><path class="cls-12" d="M621.92,626.83H163.7v-83.6h458.22v83.6Zm-454.2-4.02h450.17v-75.55H167.72v75.55Z"/></g></g><g><g><polygon class="cls-11" points="60.28 306.16 616.94 306.16 616.94 170.89 580.16 128.24 25.11 263.51 60.28 306.16"/><path class="cls-12" d="M618.95,308.17H59.33l-37.81-45.86L580.88,126l38.07,44.15v138.03Zm-557.72-4.02H614.93V171.64l-35.49-41.15L28.7,264.71l32.53,39.44Z"/></g><g><polygon class="cls-8" points="58.27 305.36 614.93 305.36 574.95 262.59 23.5 263.51 58.27 305.36"/><path class="cls-12" d="M614.93,307.37H58.27c-.6,0-1.16-.27-1.55-.73l-34.77-41.85c-.5-.6-.61-1.43-.27-2.14,.33-.71,1.04-1.16,1.82-1.16l551.45-.92h0c.56,0,1.09,.23,1.47,.64l39.98,42.76c.55,.59,.7,1.44,.38,2.18-.32,.73-1.04,1.21-1.85,1.21Zm-555.72-4.02H610.3l-36.22-38.74-546.3,.91,31.43,37.83Z"/></g><g class="cls-10"><g><rect class="cls-12" x="11.35" y="210.4" width="2.01" height="166.92" transform="translate(-188.61 79.11) rotate(-40.69)"/><rect class="cls-12" x="23.2" y="210.4" width="2.01" height="166.92" transform="translate(-185.75 86.84) rotate(-40.69)"/><rect class="cls-12" x="35.05" y="210.4" width="2.01" height="166.92" transform="translate(-182.88 94.56) rotate(-40.69)"/><rect class="cls-12" x="46.9" y="210.4" width="2.01" height="166.92" transform="translate(-180.02 102.29) rotate(-40.69)"/><rect class="cls-12" x="58.75" y="210.4" width="2.01" height="166.92" transform="translate(-177.15 110.02) rotate(-40.69)"/><rect class="cls-12" x="70.6" y="210.4" width="2.01" height="166.92" transform="translate(-174.29 117.74) rotate(-40.69)"/><rect class="cls-12" x="82.45" y="210.4" width="2.01" height="166.92" transform="translate(-171.42 125.47) rotate(-40.69)"/><rect class="cls-12" x="94.3" y="210.4" width="2.01" height="166.92" transform="translate(-168.56 133.2) rotate(-40.69)"/><rect class="cls-12" x="106.15" y="210.4" width="2.01" height="166.92" transform="translate(-165.69 140.92) rotate(-40.69)"/><rect class="cls-12" x="118" y="210.4" width="2.01" height="166.92" transform="translate(-162.83 148.65) rotate(-40.69)"/><rect class="cls-12" x="129.85" y="210.4" width="2.01" height="166.92" transform="translate(-159.96 156.38) rotate(-40.69)"/><rect class="cls-12" x="141.7" y="210.4" width="2.01" height="166.92" transform="translate(-157.09 164.1) rotate(-40.69)"/><rect class="cls-12" x="153.55" y="210.4" width="2.01" height="166.92" transform="translate(-154.23 171.83) rotate(-40.69)"/><rect class="cls-12" x="165.4" y="210.4" width="2.01" height="166.92" transform="translate(-151.36 179.56) rotate(-40.69)"/><rect class="cls-12" x="177.25" y="210.4" width="2.01" height="166.92" transform="translate(-148.5 187.28) rotate(-40.69)"/><rect class="cls-12" x="189.1" y="210.4" width="2.01" height="166.92" transform="translate(-145.63 195.01) rotate(-40.69)"/><rect class="cls-12" x="200.96" y="210.4" width="2.01" height="166.92" transform="translate(-142.77 202.74) rotate(-40.69)"/><rect class="cls-12" x="212.81" y="210.4" width="2.01" height="166.92" transform="translate(-139.9 210.46) rotate(-40.69)"/><rect class="cls-12" x="224.66" y="210.4" width="2.01" height="166.92" transform="translate(-137.04 218.19) rotate(-40.69)"/><rect class="cls-12" x="236.51" y="210.4" width="2.01" height="166.92" transform="translate(-134.17 225.92) rotate(-40.69)"/><rect class="cls-12" x="248.36" y="210.4" width="2.01" height="166.92" transform="translate(-131.31 233.64) rotate(-40.69)"/><rect class="cls-12" x="260.21" y="210.4" width="2.01" height="166.92" transform="translate(-128.44 241.37) rotate(-40.69)"/><rect class="cls-12" x="272.06" y="210.4" width="2.01" height="166.92" transform="translate(-125.57 249.1) rotate(-40.69)"/><rect class="cls-12" x="283.91" y="210.4" width="2.01" height="166.92" transform="translate(-122.71 256.82) rotate(-40.69)"/><rect class="cls-12" x="295.76" y="210.4" width="2.01" height="166.92" transform="translate(-119.84 264.55) rotate(-40.69)"/><rect class="cls-12" x="307.61" y="210.4" width="2.01" height="166.92" transform="translate(-116.98 272.28) rotate(-40.69)"/><rect class="cls-12" x="319.46" y="210.4" width="2.01" height="166.92" transform="translate(-114.11 280) rotate(-40.69)"/><rect class="cls-12" x="331.31" y="210.4" width="2.01" height="166.92" transform="translate(-111.25 287.73) rotate(-40.69)"/><rect class="cls-12" x="343.16" y="210.4" width="2.01" height="166.92" transform="translate(-108.38 295.46) rotate(-40.69)"/><rect class="cls-12" x="355.01" y="210.4" width="2.01" height="166.92" transform="translate(-105.52 303.18) rotate(-40.69)"/><rect class="cls-12" x="366.86" y="210.4" width="2.01" height="166.92" transform="translate(-102.65 310.91) rotate(-40.69)"/><rect class="cls-12" x="378.71" y="210.4" width="2.01" height="166.92" transform="translate(-99.79 318.64) rotate(-40.69)"/><rect class="cls-12" x="390.56" y="210.4" width="2.01" height="166.92" transform="translate(-96.92 326.36) rotate(-40.69)"/><rect class="cls-12" x="402.41" y="210.4" width="2.01" height="166.92" transform="translate(-94.06 334.09) rotate(-40.69)"/><rect class="cls-12" x="414.26" y="210.4" width="2.01" height="166.92" transform="translate(-91.19 341.82) rotate(-40.69)"/><rect class="cls-12" x="426.11" y="210.4" width="2.01" height="166.92" transform="translate(-88.32 349.55) rotate(-40.69)"/><rect class="cls-12" x="437.96" y="210.4" width="2.01" height="166.92" transform="translate(-85.46 357.27) rotate(-40.69)"/><rect class="cls-12" x="449.81" y="210.4" width="2.01" height="166.92" transform="translate(-82.59 365) rotate(-40.69)"/><rect class="cls-12" x="461.66" y="210.4" width="2.01" height="166.92" transform="translate(-79.73 372.73) rotate(-40.69)"/><rect class="cls-12" x="473.52" y="210.4" width="2.01" height="166.92" transform="translate(-76.86 380.45) rotate(-40.69)"/><rect class="cls-12" x="485.37" y="210.4" width="2.01" height="166.92" transform="translate(-74 388.18) rotate(-40.69)"/><rect class="cls-12" x="497.22" y="210.4" width="2.01" height="166.92" transform="translate(-71.13 395.91) rotate(-40.69)"/><rect class="cls-12" x="509.07" y="210.4" width="2.01" height="166.92" transform="translate(-68.27 403.63) rotate(-40.69)"/><rect class="cls-12" x="520.92" y="210.4" width="2.01" height="166.92" transform="translate(-65.4 411.36) rotate(-40.69)"/><rect class="cls-12" x="532.77" y="210.4" width="2.01" height="166.92" transform="translate(-62.54 419.09) rotate(-40.69)"/><rect class="cls-12" x="544.62" y="210.4" width="2.01" height="166.92" transform="translate(-59.67 426.81) rotate(-40.69)"/><rect class="cls-12" x="556.47" y="210.4" width="2.01" height="166.92" transform="translate(-56.8 434.54) rotate(-40.69)"/><rect class="cls-12" x="568.32" y="210.4" width="2.01" height="166.92" transform="translate(-53.94 442.27) rotate(-40.69)"/><rect class="cls-12" x="580.17" y="210.4" width="2.01" height="166.92" transform="translate(-51.07 449.99) rotate(-40.69)"/><rect class="cls-12" x="592.02" y="210.4" width="2.01" height="166.92" transform="translate(-48.21 457.72) rotate(-40.69)"/><rect class="cls-12" x="603.87" y="210.4" width="2.01" height="166.92" transform="translate(-45.34 465.45) rotate(-40.69)"/><rect class="cls-12" x="615.72" y="210.4" width="2.01" height="166.92" transform="translate(-42.48 473.17) rotate(-40.69)"/></g></g><g><rect class="cls-2" x="23.5" y="128.24" width="556.66" height="135.27"/><path class="cls-12" d="M582.18,265.52H21.49V126.23H582.18v139.29Zm-556.66-4.02H578.15V130.25H25.51v131.25Z"/></g><g class="cls-4"><g><g><g><g><circle class="cls-13" cx="549.84" cy="71.69" r="1.71"/><circle class="cls-13" cx="552.78" cy="80.11" r="1.71"/><circle class="cls-13" cx="555.71" cy="88.53" r="1.71"/><circle class="cls-13" cx="558.65" cy="96.95" r="1.71"/><circle class="cls-13" cx="561.59" cy="105.37" r="1.71"/><circle class="cls-13" cx="564.53" cy="113.78" r="1.71"/><circle class="cls-13" cx="567.47" cy="122.2" r="1.71"/><circle class="cls-13" cx="570.41" cy="130.62" r="1.71"/><circle class="cls-13" cx="573.35" cy="139.04" r="1.71"/><circle class="cls-13" cx="576.29" cy="147.46" r="1.71"/><circle class="cls-13" cx="579.23" cy="155.87" r="1.71"/><circle class="cls-13" cx="582.17" cy="164.29" r="1.71"/><circle class="cls-13" cx="585.11" cy="172.71" r="1.71"/><circle class="cls-13" cx="588.05" cy="181.13" r="1.71"/><circle class="cls-13" cx="590.99" cy="189.55" r="1.71"/><circle class="cls-13" cx="593.93" cy="197.96" r="1.71"/></g><g><circle class="cls-13" cx="541.42" cy="74.63" r="1.71"/><circle class="cls-13" cx="544.36" cy="83.05" r="1.71"/><circle class="cls-13" cx="547.3" cy="91.47" r="1.71"/><circle class="cls-13" cx="550.24" cy="99.89" r="1.71"/><circle class="cls-13" cx="553.18" cy="108.31" r="1.71"/><circle class="cls-13" cx="556.12" cy="116.72" r="1.71"/><circle class="cls-13" cx="559.05" cy="125.14" r="1.71"/><circle class="cls-13" cx="561.99" cy="133.56" r="1.71"/><circle class="cls-13" cx="564.93" cy="141.98" r="1.71"/><circle class="cls-13" cx="567.87" cy="150.4" r="1.71"/><circle class="cls-13" cx="570.81" cy="158.81" r="1.71"/><circle class="cls-13" cx="573.75" cy="167.23" r="1.71"/><circle class="cls-13" cx="576.69" cy="175.65" r="1.71"/><circle class="cls-13" cx="579.63" cy="184.07" r="1.71"/><circle class="cls-13" cx="582.57" cy="192.49" r="1.71"/><circle class="cls-13" cx="585.51" cy="200.9" r="1.71"/></g><g><circle class="cls-13" cx="533" cy="77.57" r="1.71"/><circle class="cls-13" cx="535.94" cy="85.99" r="1.71"/><circle class="cls-13" cx="538.88" cy="94.41" r="1.71"/><circle class="cls-13" cx="541.82" cy="102.83" r="1.71"/><circle class="cls-13" cx="544.76" cy="111.24" r="1.71"/><circle class="cls-13" cx="547.7" cy="119.66" r="1.71"/><circle class="cls-13" cx="550.64" cy="128.08" r="1.71"/><circle class="cls-13" cx="553.58" cy="136.5" r="1.71"/><circle class="cls-13" cx="556.52" cy="144.92" r="1.71"/><circle class="cls-13" cx="559.46" cy="153.34" r="1.71"/><circle class="cls-13" cx="562.39" cy="161.75" r="1.71"/><circle class="cls-13" cx="565.33" cy="170.17" r="1.71"/><circle class="cls-13" cx="568.27" cy="178.59" r="1.71"/><circle class="cls-13" cx="571.21" cy="187.01" r="1.71"/><circle class="cls-13" cx="574.15" cy="195.43" r="1.71"/><circle class="cls-13" cx="577.09" cy="203.84" r="1.71"/></g><g><circle class="cls-13" cx="524.58" cy="80.51" r="1.71"/><circle class="cls-13" cx="527.52" cy="88.93" r="1.71"/><circle class="cls-13" cx="530.46" cy="97.35" r="1.71"/><circle class="cls-13" cx="533.4" cy="105.77" r="1.71"/><circle class="cls-13" cx="536.34" cy="114.18" r="1.71"/><circle class="cls-13" cx="539.28" cy="122.6" r="1.71"/><circle class="cls-13" cx="542.22" cy="131.02" r="1.71"/><circle class="cls-13" cx="545.16" cy="139.44" r="1.71"/><circle class="cls-13" cx="548.1" cy="147.86" r="1.71"/><circle class="cls-13" cx="551.04" cy="156.27" r="1.71"/><circle class="cls-13" cx="553.98" cy="164.69" r="1.71"/><circle class="cls-13" cx="556.92" cy="173.11" r="1.71"/><circle class="cls-13" cx="559.86" cy="181.53" r="1.71"/><circle class="cls-13" cx="562.8" cy="189.95" r="1.71"/><circle class="cls-13" cx="565.73" cy="198.37" r="1.71"/><circle class="cls-13" cx="568.67" cy="206.78" r="1.71"/></g></g><g><circle class="cls-13" cx="596.88" cy="206.41" r="1.71"/><circle class="cls-13" cx="599.82" cy="214.83" r="1.71"/><circle class="cls-13" cx="602.76" cy="223.25" r="1.71"/><circle class="cls-13" cx="605.7" cy="231.67" r="1.71"/><circle class="cls-13" cx="608.64" cy="240.08" r="1.71"/><circle class="cls-13" cx="611.58" cy="248.5" r="1.71"/><circle class="cls-13" cx="614.52" cy="256.92" r="1.71"/><circle class="cls-13" cx="617.45" cy="265.34" r="1.71"/><circle class="cls-13" cx="620.39" cy="273.76" r="1.71"/><circle class="cls-13" cx="623.33" cy="282.17" r="1.71"/><circle class="cls-13" cx="588.46" cy="209.35" r="1.71"/><circle class="cls-13" cx="591.4" cy="217.77" r="1.71"/><circle class="cls-13" cx="594.34" cy="226.19" r="1.71"/><circle class="cls-13" cx="597.28" cy="234.61" r="1.71"/><circle class="cls-13" cx="600.22" cy="243.02" r="1.71"/><circle class="cls-13" cx="603.16" cy="251.44" r="1.71"/><circle class="cls-13" cx="606.1" cy="259.86" r="1.71"/><circle class="cls-13" cx="609.04" cy="268.28" r="1.71"/><circle class="cls-13" cx="611.98" cy="276.7" r="1.71"/><circle class="cls-13" cx="614.92" cy="285.11" r="1.71"/><circle class="cls-13" cx="617.86" cy="293.53" r="1.71"/><circle class="cls-13" cx="620.79" cy="301.95" r="1.71"/><circle class="cls-13" cx="623.73" cy="310.37" r="1.71"/><circle class="cls-13" cx="580.04" cy="212.29" r="1.71"/><circle class="cls-13" cx="582.98" cy="220.71" r="1.71"/><circle class="cls-13" cx="585.92" cy="229.13" r="1.71"/><circle class="cls-13" cx="588.86" cy="237.55" r="1.71"/><circle class="cls-13" cx="591.8" cy="245.96" r="1.71"/><circle class="cls-13" cx="594.74" cy="254.38" r="1.71"/><circle class="cls-13" cx="597.68" cy="262.8" r="1.71"/><circle class="cls-13" cx="600.62" cy="271.22" r="1.71"/><circle class="cls-13" cx="603.56" cy="279.64" r="1.71"/><circle class="cls-13" cx="606.5" cy="288.05" r="1.71"/><circle class="cls-13" cx="609.44" cy="296.47" r="1.71"/><circle class="cls-13" cx="612.38" cy="304.89" r="1.71"/><circle class="cls-13" cx="615.32" cy="313.31" r="1.71"/><circle class="cls-13" cx="618.26" cy="321.73" r="1.71"/><circle class="cls-13" cx="621.2" cy="330.14" r="1.71"/><circle class="cls-13" cx="571.62" cy="215.23" r="1.71"/><circle class="cls-13" cx="574.56" cy="223.65" r="1.71"/><circle class="cls-13" cx="577.5" cy="232.07" r="1.71"/><circle class="cls-13" cx="580.44" cy="240.48" r="1.71"/><circle class="cls-13" cx="583.38" cy="248.9" r="1.71"/><circle class="cls-13" cx="586.32" cy="257.32" r="1.71"/><circle class="cls-13" cx="589.26" cy="265.74" r="1.71"/><circle class="cls-13" cx="592.2" cy="274.16" r="1.71"/><circle class="cls-13" cx="595.14" cy="282.58" r="1.71"/><circle class="cls-13" cx="598.08" cy="290.99" r="1.71"/><circle class="cls-13" cx="601.02" cy="299.41" r="1.71"/><circle class="cls-13" cx="603.96" cy="307.83" r="1.71"/><circle class="cls-13" cx="606.9" cy="316.25" r="1.71"/><circle class="cls-13" cx="609.84" cy="324.67" r="1.71"/><circle class="cls-13" cx="612.78" cy="333.08" r="1.71"/></g></g><g><circle class="cls-13" cx="574.93" cy="62.93" r="1.71"/><circle class="cls-13" cx="577.87" cy="71.35" r="1.71"/><circle class="cls-13" cx="580.81" cy="79.77" r="1.71"/><circle class="cls-13" cx="583.75" cy="88.18" r="1.71"/><circle class="cls-13" cx="586.69" cy="96.6" r="1.71"/><circle class="cls-13" cx="589.63" cy="105.02" r="1.71"/><circle class="cls-13" cx="592.57" cy="113.44" r="1.71"/><circle class="cls-13" cx="595.51" cy="121.86" r="1.71"/><circle class="cls-13" cx="598.45" cy="130.27" r="1.71"/><circle class="cls-13" cx="601.39" cy="138.69" r="1.71"/><circle class="cls-13" cx="604.33" cy="147.11" r="1.71"/><circle class="cls-13" cx="607.27" cy="155.53" r="1.71"/><circle class="cls-13" cx="610.21" cy="163.95" r="1.71"/><circle class="cls-13" cx="613.15" cy="172.36" r="1.71"/><circle class="cls-13" cx="616.09" cy="180.78" r="1.71"/><circle class="cls-13" cx="619.03" cy="189.2" r="1.71"/></g><g><circle class="cls-13" cx="566.52" cy="65.87" r="1.71"/><circle class="cls-13" cx="569.46" cy="74.29" r="1.71"/><circle class="cls-13" cx="572.4" cy="82.7" r="1.71"/><circle class="cls-13" cx="575.33" cy="91.12" r="1.71"/><circle class="cls-13" cx="578.27" cy="99.54" r="1.71"/><circle class="cls-13" cx="581.21" cy="107.96" r="1.71"/><circle class="cls-13" cx="584.15" cy="116.38" r="1.71"/><circle class="cls-13" cx="587.09" cy="124.8" r="1.71"/><circle class="cls-13" cx="590.03" cy="133.21" r="1.71"/><circle class="cls-13" cx="592.97" cy="141.63" r="1.71"/><circle class="cls-13" cx="595.91" cy="150.05" r="1.71"/><circle class="cls-13" cx="598.85" cy="158.47" r="1.71"/><circle class="cls-13" cx="601.79" cy="166.89" r="1.71"/><circle class="cls-13" cx="604.73" cy="175.3" r="1.71"/><circle class="cls-13" cx="607.67" cy="183.72" r="1.71"/><circle class="cls-13" cx="610.61" cy="192.14" r="1.71"/></g><g><circle class="cls-13" cx="558.1" cy="68.81" r="1.71"/><circle class="cls-13" cx="561.04" cy="77.23" r="1.71"/><circle class="cls-13" cx="563.98" cy="85.64" r="1.71"/><circle class="cls-13" cx="566.92" cy="94.06" r="1.71"/><circle class="cls-13" cx="569.86" cy="102.48" r="1.71"/><circle class="cls-13" cx="572.8" cy="110.9" r="1.71"/><circle class="cls-13" cx="575.74" cy="119.32" r="1.71"/><circle class="cls-13" cx="578.67" cy="127.73" r="1.71"/><circle class="cls-13" cx="581.61" cy="136.15" r="1.71"/><circle class="cls-13" cx="584.55" cy="144.57" r="1.71"/><circle class="cls-13" cx="587.49" cy="152.99" r="1.71"/><circle class="cls-13" cx="590.43" cy="161.41" r="1.71"/><circle class="cls-13" cx="593.37" cy="169.83" r="1.71"/><circle class="cls-13" cx="596.31" cy="178.24" r="1.71"/><circle class="cls-13" cx="599.25" cy="186.66" r="1.71"/><circle class="cls-13" cx="602.19" cy="195.08" r="1.71"/></g><g><circle class="cls-13" cx="549.68" cy="71.75" r="1.71"/><circle class="cls-13" cx="552.62" cy="80.17" r="1.71"/><circle class="cls-13" cx="555.56" cy="88.58" r="1.71"/><circle class="cls-13" cx="558.5" cy="97" r="1.71"/><circle class="cls-13" cx="561.44" cy="105.42" r="1.71"/><circle class="cls-13" cx="564.38" cy="113.84" r="1.71"/><circle class="cls-13" cx="567.32" cy="122.26" r="1.71"/><circle class="cls-13" cx="570.26" cy="130.67" r="1.71"/><circle class="cls-13" cx="573.2" cy="139.09" r="1.71"/><circle class="cls-13" cx="576.14" cy="147.51" r="1.71"/><circle class="cls-13" cx="579.08" cy="155.93" r="1.71"/><circle class="cls-13" cx="582.01" cy="164.35" r="1.71"/><circle class="cls-13" cx="584.95" cy="172.76" r="1.71"/><circle class="cls-13" cx="587.89" cy="181.18" r="1.71"/><circle class="cls-13" cx="590.83" cy="189.6" r="1.71"/><circle class="cls-13" cx="593.77" cy="198.02" r="1.71"/></g><circle class="cls-13" cx="621.98" cy="197.65" r="1.71"/><circle class="cls-13" cx="624.92" cy="206.07" r="1.71"/><circle class="cls-13" cx="613.56" cy="200.59" r="1.71"/><circle class="cls-13" cx="616.5" cy="209.01" r="1.71"/><circle class="cls-13" cx="619.44" cy="217.42" r="1.71"/><circle class="cls-13" cx="622.38" cy="225.84" r="1.71"/><circle class="cls-13" cx="625.32" cy="234.26" r="1.71"/><circle class="cls-13" cx="605.14" cy="203.53" r="1.71"/><circle class="cls-13" cx="608.08" cy="211.94" r="1.71"/><circle class="cls-13" cx="611.02" cy="220.36" r="1.71"/><circle class="cls-13" cx="613.96" cy="228.78" r="1.71"/><circle class="cls-13" cx="616.9" cy="237.2" r="1.71"/><circle class="cls-13" cx="619.84" cy="245.62" r="1.71"/><circle class="cls-13" cx="622.78" cy="254.04" r="1.71"/><circle class="cls-13" cx="625.72" cy="262.45" r="1.71"/><circle class="cls-13" cx="596.72" cy="206.47" r="1.71"/><circle class="cls-13" cx="599.66" cy="214.88" r="1.71"/><circle class="cls-13" cx="602.6" cy="223.3" r="1.71"/><circle class="cls-13" cx="605.54" cy="231.72" r="1.71"/><circle class="cls-13" cx="608.48" cy="240.14" r="1.71"/><circle class="cls-13" cx="611.42" cy="248.56" r="1.71"/><circle class="cls-13" cx="614.36" cy="256.97" r="1.71"/><circle class="cls-13" cx="617.3" cy="265.39" r="1.71"/><circle class="cls-13" cx="620.24" cy="273.81" r="1.71"/><circle class="cls-13" cx="623.18" cy="282.23" r="1.71"/></g></g></g><g><path class="cls-2" d="M80.47,275.84c0-7.33-5.27-12.6-12.6-12.6,7.33,0,12.6-5.27,12.6-12.6,0,7.33,5.27,12.6,12.6,12.6-7.33,0-12.6,5.27-12.6,12.6Z"/><path class="cls-12" d="M82.08,275.84h-3.22c0-6.47-4.52-10.99-10.99-10.99v-3.22c6.47,0,10.99-4.52,10.99-10.99h3.22c0,6.47,4.52,10.99,10.99,10.99v3.22c-6.47,0-10.99,4.52-10.99,10.99Zm-7.32-12.6c2.47,1.27,4.44,3.24,5.71,5.71,1.27-2.47,3.24-4.44,5.71-5.71-2.47-1.27-4.44-3.24-5.71-5.71-1.27,2.47-3.24,4.44-5.71,5.71Z"/></g><g><path class="cls-2" d="M133,447.11c0-10.69-7.69-18.38-18.38-18.38,10.69,0,18.38-7.69,18.38-18.38,0,10.69,7.69,18.38,18.38,18.38-10.69,0-18.38,7.69-18.38,18.38Z"/><path class="cls-12" d="M134.61,447.11h-3.22c0-9.88-6.9-16.77-16.77-16.77v-3.22c9.88,0,16.77-6.9,16.77-16.77h3.22c0,9.88,6.9,16.77,16.77,16.77v3.22c-9.88,0-16.77,6.9-16.77,16.77Zm-11.7-18.38c4.6,1.93,8.16,5.49,10.09,10.09,1.93-4.6,5.49-8.16,10.09-10.09-4.6-1.93-8.16-5.49-10.09-10.09-1.93,4.6-5.49,8.16-10.09,10.09Z"/></g><g><path class="cls-2" d="M495.42,409.42c0-7.33-5.27-12.6-12.6-12.6,7.33,0,12.6-5.27,12.6-12.6,0,7.33,5.27,12.6,12.6,12.6-7.33,0-12.6,5.27-12.6,12.6Z"/><path class="cls-12" d="M497.03,409.42h-3.22c0-6.47-4.52-10.99-10.99-10.99v-3.22c6.47,0,10.99-4.52,10.99-10.99h3.22c0,6.47,4.52,10.99,10.99,10.99v3.22c-6.47,0-10.99,4.52-10.99,10.99Zm-7.32-12.6c2.47,1.27,4.44,3.24,5.71,5.71,1.27-2.47,3.24-4.44,5.71-5.71-2.47-1.27-4.44-3.24-5.71-5.71-1.27,2.47-3.24,4.44-5.71,5.71Z"/></g><g><path class="cls-2" d="M588.71,638.44c0-7.33-5.27-12.6-12.6-12.6,7.33,0,12.6-5.27,12.6-12.6,0,7.33,5.27,12.6,12.6,12.6-7.33,0-12.6,5.27-12.6,12.6Z"/><path class="cls-12" d="M590.32,638.44h-3.22c0-6.47-4.52-10.99-10.99-10.99v-3.22c6.47,0,10.99-4.52,10.99-10.99h3.22c0,6.47,4.52,10.99,10.99,10.99v3.22c-6.47,0-10.99,4.52-10.99,10.99Zm-7.32-12.6c2.47,1.27,4.44,3.24,5.71,5.71,1.27-2.47,3.24-4.44,5.71-5.71-2.47-1.27-4.44-3.24-5.71-5.71-1.27,2.47-3.24,4.44-5.71,5.71Z"/></g><path class="cls-12" d="M207.86,566.59c-10.46,0-18.97,8.84-18.97,19.71s8.51,19.71,18.97,19.71,18.97-8.84,18.97-19.71-8.51-19.71-18.97-19.71Z"/><g><path class="cls-2" d="M218.34,586.62c0-1.18-3.39-1.92-7.74-2.24-.47-.03-.84-.4-.87-.87-.32-4.36-1.06-7.75-2.24-7.75s-1.94,3.38-2.26,7.73c-.03,.47-.4,.84-.87,.87-4.35,.32-7.72,1.07-7.72,2.25s3.37,1.94,7.72,2.26c.47,.03,.84,.4,.87,.87,.32,4.35,1.08,7.72,2.26,7.72s1.94-3.38,2.27-7.73c.03-.47,.4-.84,.87-.87,4.35-.32,7.72-1.07,7.72-2.25Z"/><path class="cls-12" d="M207.48,598.28c-.67,0-2.44,0-3.07-8.47,0-.07-.06-.12-.13-.13-8.47-.63-8.47-2.4-8.47-3.07s0-2.43,8.47-3.06c.07,0,.12-.06,.13-.13,.63-8.48,2.4-8.48,3.07-8.48,1.13,0,2.49,.96,3.05,8.49,0,.07,.06,.12,.13,.13,7.52,.55,8.49,1.92,8.49,3.04,0,.66,0,2.43-8.46,3.05-.07,0-.12,.06-.13,.13-.63,8.48-2.4,8.48-3.07,8.48Zm-10.01-11.66c.34,.34,2.04,1.1,6.94,1.46,.87,.06,1.55,.74,1.61,1.61,.36,4.89,1.12,6.59,1.46,6.94,.34-.34,1.1-2.05,1.46-6.95,.06-.87,.74-1.55,1.61-1.61,4.88-.36,6.58-1.11,6.93-1.45-.35-.34-2.06-1.08-6.96-1.44-.87-.06-1.55-.74-1.61-1.61-.36-4.9-1.11-6.61-1.44-6.96-.34,.35-1.1,2.05-1.46,6.95-.06,.86-.76,1.55-1.61,1.61-4.89,.36-6.59,1.11-6.94,1.45Z"/></g><g><path class="cls-12" d="M88.89,182.03l-4.24,12.45,2.33,.61,10.55-30.78h29.92v67.53h-23.35v-22.74l-6.92,22.74h-15.56l-6.92-22.74v22.74h-23.61v-67.53h32.25l5.53,17.73Z"/><path class="cls-12" d="M177.95,231.84h-44.27v-67.53h43.67c2.19,0,4.28,.32,6.27,.95,1.99,.63,3.73,1.61,5.23,2.94,1.5,1.33,2.69,3.03,3.59,5.1,.89,2.08,1.34,4.55,1.34,7.44,0,4.15-.81,7.52-2.42,10.12-1.61,2.59-3.69,4.61-6.23,6.05,2.77,1.21,5.06,3.36,6.87,6.44,1.82,3.08,2.72,6.79,2.72,11.11,0,2.77-.46,5.22-1.38,7.35-.92,2.13-2.15,3.95-3.67,5.45-1.53,1.5-3.3,2.64-5.32,3.42-2.02,.78-4.15,1.17-6.4,1.17Zm-24.64-22.05l-1.21,2.08c.98,.4,2.28,.76,3.89,1.08,1.61,.32,3.33,.61,5.14,.86s3.63,.46,5.45,.61c1.82,.14,3.42,.22,4.8,.22v-2.33c-1.38,0-2.96-.09-4.71-.26-1.76-.17-3.49-.37-5.19-.61-1.7-.23-3.27-.49-4.71-.78-1.44-.29-2.59-.58-3.46-.86Zm.86-29.4l-1.21,2.08c.98,.4,2.19,.76,3.63,1.08,1.44,.32,2.95,.61,4.54,.86,1.58,.26,3.2,.46,4.84,.61,1.64,.14,3.16,.22,4.54,.22v-2.33c-1.38,0-2.87-.09-4.45-.26-1.59-.17-3.11-.37-4.58-.61-1.47-.23-2.84-.49-4.11-.78-1.27-.29-2.34-.58-3.2-.86Z"/><path class="cls-12" d="M264.16,164.31v67.62h-34.07l-6.92-22.74v22.74h-23.69v-67.62h34.16l9.25,26.89,2.33-.61-5.71-16.17v-10.12h24.64Z"/><path class="cls-12" d="M323.56,164.31l5.1,12.54-4.58,11.85,2.33,.61,9.6-24.99h28.19l-19.8,44.88v22.66h-29.49v-22.48l-21.62-45.05h30.26Z"/><path class="cls-12" d="M466.67,235.3h-73.33v-19.2h23.35v-4.24h-23.35v-18.68h10.29v-10.2h-10.29v-18.68h73.33v18.68h-9.43v10.2h9.43v18.68h-23.35v4.24h23.35v19.2Zm-46.95-50.15l-.95,2.59c1.67,.52,3.49,.97,5.45,1.34,1.96,.38,3.95,.66,5.97,.86,2.02,.2,4.01,.36,5.97,.48,1.96,.12,3.75,.17,5.36,.17v-2.59c-3.29,0-6.92-.24-10.9-.74-3.98-.49-7.61-1.2-10.9-2.12Z"/><path class="cls-12" d="M472.89,183.16c2.94,0,5.85-.33,8.73-.99,2.88-.66,5.53-1.57,7.96-2.72v-2.59c-2.42,1.15-5.07,2.06-7.96,2.72-2.88,.66-5.79,.99-8.73,.99v-16.26h41.59v20.75c-1.85,.69-3.98,1.24-6.4,1.64-2.42,.4-4.64,.58-6.66,.52v2.59c1.38-.06,2.91-.17,4.58-.35,1.67-.17,3.36-.42,5.06-.73,1.7-.32,3.31-.71,4.84-1.17,1.53-.46,2.87-.98,4.02-1.56v14.09c-3.23,1.15-7.8,2.1-13.71,2.85-5.91,.75-13.16,1.12-21.75,1.12-3.92,0-6.83-.81-8.73-2.42-1.9-1.61-2.85-4.35-2.85-8.21v-10.29Zm0,23.26h73.33v28.88h-55.86c-11.65,0-17.47-4.96-17.47-14.87v-14.01Zm24.38,12.11c1.73,.81,3.66,1.48,5.79,2.03,2.13,.55,4.32,.98,6.57,1.3,2.25,.32,4.5,.52,6.74,.61,2.25,.09,4.32,.07,6.23-.04v-2.51c-1.79,.12-3.75,.12-5.88,0-2.13-.11-4.28-.33-6.44-.65-2.16-.32-4.28-.75-6.36-1.3-2.08-.55-3.92-1.2-5.53-1.95l-1.12,2.51Zm25.68-14.53v-21.18c-.98,.29-1.98,.53-2.98,.73-1.01,.2-2.03,.42-3.07,.65v-15.31c.98-.11,1.97-.24,2.98-.39,1.01-.14,2.03-.33,3.07-.56v-3.63h23.26v39.69h-23.26Z"/></g><g><path class="cls-12" d="M172.48,461.97c0-1.45-.73-2.63-2.18-2.63s-2.18,1.18-2.18,2.63v3.32h-9.08v-3.32c0-6.45,4.86-9.9,11.27-9.9s11.72,3.45,11.72,9.9v1.82c0,5.63-2.27,8.45-7.13,13.67-4.91,5.27-6.31,6.27-6.31,8.49v.82h13.45v7.27h-23.44v-8.09c0-3.32,.32-5.81,8.27-12.81,4.86-4.22,5.63-6.45,5.63-9.36v-1.82Z"/><path class="cls-12" d="M184.74,461.97c0-6.45,5.31-9.9,11.72-9.9s11.72,3.45,11.72,9.9v23.3c0,6.45-5.31,9.9-11.72,9.9s-11.72-3.45-11.72-9.9v-23.3Zm9.08,23.3c0,1.45,1.18,2.63,2.63,2.63s2.63-1.18,2.63-2.63v-23.3c0-1.45-1.18-2.63-2.63-2.63s-2.63,1.18-2.63,2.63v23.3Z"/><path class="cls-12" d="M224.81,461.97c0-1.45-.73-2.63-2.18-2.63s-2.18,1.18-2.18,2.63v3.32h-9.08v-3.32c0-6.45,4.86-9.9,11.27-9.9s11.72,3.45,11.72,9.9v1.82c0,5.63-2.27,8.45-7.13,13.67-4.91,5.27-6.31,6.27-6.31,8.49v.82h13.45v7.27h-23.44v-8.09c0-3.32,.32-5.81,8.27-12.81,4.86-4.22,5.63-6.45,5.63-9.36v-1.82Z"/><path class="cls-12" d="M245.56,475.64v-7.27l3-.23c1.36-.14,2.86-1.18,2.86-2.63v-4c0-1.45-1.18-2.63-2.63-2.63s-2.63,1.18-2.63,2.63v3.32h-9.08v-2.86c0-6.45,5.31-9.9,11.72-9.9s11.72,3.45,11.72,9.9v3.09c0,3.45-1.36,5.59-3.54,6.9,2.41,1.32,4,3.5,4,7v6.31c0,6.45-5.77,9.9-12.17,9.9s-12.17-3.45-12.17-9.9v-4.95h9.54v4.95c0,1.45,1.18,2.63,2.63,2.63s2.63-1.18,2.63-2.63v-6.77c0-1.45-1.64-2.63-3.09-2.63l-2.77-.23Z"/><path class="cls-12" d="M265.05,480.18v-27.21h9.99v19.17l18.81-.68v7.54l-28.8,1.18Zm1.91,14.54v-12.63h10.13v5.18h29.07v7.45h-39.2Zm28.48-11.22v-13.49h-10.36v-6.18h10.36v-1.95h-10.36v-6.18h10.36v-3.18h10.04v30.98h-10.04Z"/><path class="cls-12" d="M336.19,461.97c0-1.45-.73-2.63-2.18-2.63s-2.18,1.18-2.18,2.63v3.32h-9.08v-3.32c0-6.45,4.86-9.9,11.27-9.9s11.72,3.45,11.72,9.9v1.82c0,5.63-2.27,8.45-7.13,13.67-4.91,5.27-6.31,6.27-6.31,8.49v.82h13.45v7.27h-23.44v-8.09c0-3.32,.32-5.81,8.27-12.81,4.86-4.22,5.63-6.45,5.63-9.36v-1.82Z"/><path class="cls-12" d="M360.81,489.72h29.39v5h-38.93v-11.08h28.94v-1.54h-28.94v-4.91h5.95l.59-3.27h-9.36v-6h30.21v6h-11.67l-.59,3.27h23.35v10.86h-28.94v1.68Zm-4.27-22.89c-4.22,0-7.18-3.09-7.18-6.9s2.95-6.95,7.18-6.95h11.63c4.18,0,7.22,3.13,7.22,6.95s-3.04,6.9-7.22,6.9h-11.63Zm2.5-8.18c-.59,0-1.14,.64-1.14,1.36s.54,1.36,1.14,1.36h6.77c.59,0,1.14-.64,1.14-1.36s-.55-1.36-1.14-1.36h-6.77Zm20.71,17.4v-11.81h-3.63v-7.04h3.63v-4.68h9.99v23.53h-9.99Z"/><path class="cls-12" d="M420.31,494.26h-9.54v-29.84h-4.63v-6.81c2.54,0,5.36-2.23,5.36-4.63h8.81v41.29Z"/><path class="cls-12" d="M433.03,475.46h-9.08v-22.26h23.48v7.27h-14.4v6.09c1.5-.68,3.13-1.14,4.91-1.14,6.5,0,9.9,3.41,9.9,9.9v9.95c0,6.45-5.95,9.9-12.4,9.9s-11.95-3.45-11.95-9.9v-3.59h9.08v3.59c0,1.45,1.41,2.63,2.86,2.63s2.86-1.18,2.86-2.63v-10.4c0-1.45-1.18-2.63-2.63-2.63s-2.5,1-2.63,2.41v.82Z"/><path class="cls-12" d="M451.93,464.51v-2.09c0-6.68,5.77-9.9,12.86-9.9s12.81,3.22,12.81,9.9v2.09c0,6.59-5.77,9.77-12.81,9.77s-12.86-3.18-12.86-9.77Zm1.91,30.21v-11.9h28.44v-1.64h-28.44v-5.13h38.47v11.58h-28.43v1.73h29.12v5.36h-39.15Zm13.99-29.43v-3.63c0-1.59-1.36-2.86-3.04-2.86-1.77,0-3.04,1.27-3.04,2.86v3.63c0,1.59,1.27,2.73,3.04,2.73,1.68,0,3.04-1.14,3.04-2.73Zm14.26,9.86v-22.62h10.22v22.62h-10.22Z"/><path class="cls-12" d="M500.07,459.88c0-8.22,5.77-8.99,12.49-8.99v6.81c-2.32,0-3.86,.68-3.86,2.73v26.25c0,2.04,1.54,2.73,3.86,2.73v6.81c-6.72,0-12.49-.77-12.49-8.99v-27.35Z"/><path class="cls-12" d="M531.51,495.17v-11.72h-15.76v-8.04h41.79v8.04h-15.76v11.72h-10.27Zm-14.17-30.75c9.54,0,14.22-5.95,14.22-10.31v-1.14h10.22v1.14c0,4.36,4.68,10.31,14.22,10.31v7.99c-9.9,0-15.94-3.63-19.35-7.86-3.5,4.22-9.31,7.86-19.31,7.86v-7.99Z"/><path class="cls-12" d="M573.21,487.22c0,8.22-5.77,8.99-12.49,8.99v-6.81c2.32,0,3.86-.68,3.86-2.73v-26.25c0-2.04-1.54-2.73-3.86-2.73v-6.81c6.72,0,12.49,.77,12.49,8.99v27.35Z"/></g><g><path class="cls-12" d="M245.47,596.09c4.86-3.27,8.49-7.77,8.63-21.08v-8.13h9.86v8.13c.14,13.31,3.77,17.81,8.63,21.08v10.72c-5.77-2.86-10.45-6.68-13.58-12.63-3.09,5.95-7.86,9.77-13.54,12.63v-10.72Zm22.53-8.13v-8.22h8.31v-13.76h9.99v42.2h-9.99v-20.21h-8.31Z"/><path class="cls-12" d="M332.23,588.18h-16.13v2.36h14.54v10.81h-28.66v1.54h29.34v5.27h-39.29v-11.31h28.66v-1.54h-28.66v-4.77h14.49v-2.36h-16.08v-6.59h41.79v6.59Zm-33.07-8.09c-4.18,0-7.59-3.18-7.59-7.13s3.41-7.22,7.59-7.22h24.3c4.18,0,7.63,3.23,7.63,7.22s-3.45,7.13-7.63,7.13h-24.3Zm3.04-8.22c-.59,0-1.04,.54-1.04,1.14s.45,1.14,1.04,1.14h18.44c.59,0,1.04-.54,1.04-1.14s-.45-1.14-1.04-1.14h-18.44Z"/><path class="cls-12" d="M349.94,582.23c5.13-.36,8.68-2.63,8.99-7.9h-8.54v-7.68h26.16v7.68h-8.59c.23,5.27,3.95,7.09,9.04,7.45v7.86c-5.86-.14-10.45-1.82-13.49-5.63-2.95,4.13-7.63,5.95-13.58,6.09v-7.86Zm10.72,9.08h20.8c5,0,8.9,3.59,8.9,8.54s-3.91,8.54-8.9,8.54h-20.8c-4.91,0-8.81-3.63-8.81-8.54s3.91-8.54,8.81-8.54Zm17.85,10.04c1.27,0,1.91-.45,1.91-1.5s-.64-1.54-1.91-1.54h-14.94c-1.09,0-1.73,.5-1.73,1.54s.64,1.5,1.73,1.5h14.94Zm.95-10.95v-24.44h9.99v7.9h4.72v7.95h-4.72v8.59h-9.99Z"/><path class="cls-12" d="M436.7,591.54h-16.13v2.36h7.54c4.18,0,7.68,3.27,7.68,7.27s-3.5,7.22-7.68,7.22h-24.67c-4.22,0-7.63-3.22-7.63-7.22s3.41-7.27,7.63-7.27h7.54v-2.36h-16.08v-6.31h41.79v6.31Zm-40.65-7.45v-6.18c9.4,.14,13.49-1.59,14.44-3.63h-13.99v-6.27h14.22v-2.95h10.27v2.95h14.13v6.27h-14.04c.95,2.04,5.04,3.77,14.49,3.63v6.18c-10.31,0-16.49-1.63-19.76-4.95-3.27,3.32-9.45,4.95-19.76,4.95Zm29.34,15.85h-19.4c-.59,0-1.04,.55-1.04,1.09s.45,1.09,1.04,1.09h19.4c.59,0,1.04-.55,1.04-1.09s-.45-1.09-1.04-1.09Z"/><path class="cls-12" d="M440.79,597.9c4.59-2.68,6.72-6.68,6.72-17.76v-2.41h-6.27v-7.68h6.22v-4.54h8.31v4.54h6.18v7.68h-6.22v2.41c0,11.08,2.14,15.08,6.72,17.76v8.9c-4.95-2.18-8.54-5.09-10.86-9.68-2.32,4.59-5.86,7.5-10.81,9.68v-8.9Zm17.53-7.77v-7.77h5.95v-16.4h7.95v42.2h-7.95v-18.03h-5.95Zm15.67,18.03v-42.2h8.13v42.2h-8.13Z"/><path class="cls-12" d="M527.55,591.09h-7.77v3.59h6.18v13.95h-9.81v-7.27h-29.03v-6.68h5.72l.73-3.59h-7.81v-7.13h41.79v7.13Zm-33.02-8.99c-4.22,0-7.63-3.63-7.63-8.18s3.41-8.22,7.63-8.22h24.21c4.18,0,7.68,3.68,7.68,8.22s-3.5,8.18-7.68,8.18h-24.21Zm2.68-9.54c-.59,0-1.04,.54-1.04,1.23s.45,1.23,1.04,1.23h18.81c.59,0,1.04-.54,1.04-1.23s-.45-1.23-1.04-1.23h-18.81Zm4.77,22.12h8.68v-3.59h-7.95l-.73,3.59Z"/><path class="cls-12" d="M531.19,593.63v-7.27l5.41-.23v-9.36h8.22v8.95l15.22-.73v7.27l-28.84,1.36Zm16.99-9.95l.91-10.08h-16.99v-6.95h26.53l-1.41,17.03h-9.04Zm-14.17,24.48v-13.17h10.13v5.95h27.94v7.22h-38.07Zm27.16-9.54v-32.66h9.99v11.58h4.72v8.22h-4.72v12.86h-9.99Z"/></g><g><g><path class="cls-12" d="M162.64,378.99h-52.7v-13.8h16.78v-2.86c-2.9-.58-5.43-1.43-7.58-2.55-2.15-1.12-3.96-2.43-5.41-3.95-1.45-1.51-2.54-3.18-3.26-5-.73-1.82-1.09-3.73-1.09-5.72,0-2.49,.56-4.83,1.68-7.02,1.12-2.2,2.8-4.11,5.03-5.75,2.24-1.64,5.04-2.93,8.42-3.88,3.38-.95,7.3-1.43,11.78-1.43s8.4,.48,11.78,1.43c3.38,.95,6.18,2.25,8.42,3.88,2.24,1.64,3.91,3.55,5.03,5.75,1.12,2.2,1.68,4.54,1.68,7.02,0,1.99-.36,3.89-1.09,5.72-.73,1.82-1.81,3.49-3.26,5-1.45,1.51-3.25,2.83-5.41,3.95-2.15,1.12-4.68,1.97-7.58,2.55v2.86h16.78v13.8Zm-33.74-36.23l-.68,1.86c1.2,.37,2.51,.69,3.92,.96,1.41,.27,2.84,.48,4.29,.62,1.45,.15,2.88,.26,4.29,.34,1.41,.08,2.69,.12,3.85,.12v-1.86c-2.36,0-4.97-.18-7.83-.53-2.86-.35-5.47-.86-7.83-1.52Z"/><path class="cls-12" d="M219.82,362.15h-52.7v-13.42h7.4v-7.33h-7.4v-13.42h52.7v13.42h-6.77v7.33h6.77v13.42Zm0,16.84h-52.7v-13.8h52.7v13.8Zm-33.74-36.04l-.68,1.86c1.2,.37,2.51,.69,3.92,.96,1.41,.27,2.84,.48,4.29,.62,1.45,.15,2.88,.26,4.29,.34,1.41,.08,2.69,.12,3.85,.12v-1.86c-2.36,0-4.97-.18-7.83-.53-2.86-.35-5.47-.86-7.83-1.52Z"/><path class="cls-12" d="M274.5,378.99h-16.72v-2.98c-.79,.37-1.72,.74-2.8,1.09-1.08,.35-2.24,.66-3.48,.93-1.24,.27-2.52,.49-3.82,.65-1.3,.17-2.54,.25-3.7,.25h-5.16c-2.94,0-5.35-.28-7.24-.84-1.89-.56-3.37-1.42-4.44-2.58-1.08-1.16-1.82-2.6-2.24-4.32-.41-1.72-.62-3.74-.62-6.06v-16.16c1.04,0,2.14-.06,3.32-.19,1.18-.12,2.36-.3,3.54-.53,1.18-.23,2.32-.51,3.42-.84,1.1-.33,2.08-.7,2.95-1.12v-1.86c-.87,.41-1.85,.79-2.95,1.12-1.1,.33-2.24,.61-3.42,.84-1.18,.23-2.36,.4-3.54,.53-1.18,.12-2.29,.19-3.32,.19v-19.14h31.13v29.89c-.79,.41-1.68,.76-2.67,1.03-.99,.27-2.02,.49-3.08,.65-1.06,.17-2.1,.28-3.14,.34-1.04,.06-2.01,.09-2.92,.09v1.86c.83,0,1.85-.02,3.08-.06,1.22-.04,2.51-.16,3.85-.34,1.35-.19,2.66-.44,3.95-.78,1.28-.33,2.38-.79,3.29-1.37v-31.32h16.72v16.22h4.72v14.67h-4.72v20.14Z"/><path class="cls-12" d="M280.84,342.14c0-4.89,1.45-8.63,4.35-11.22,2.9-2.59,7.15-3.88,12.74-3.88s9.95,1.28,12.83,3.85c2.88,2.57,4.32,6.32,4.32,11.25s-1.45,8.63-4.35,11.22c-2.9,2.59-7.17,3.88-12.8,3.88s-9.84-1.29-12.74-3.88c-2.9-2.59-4.35-6.33-4.35-11.22Zm1.62,16.1h18.02c0,5.01,3.23,7.62,9.69,7.83,4.56,.12,8.92,.01,13.08-.34,4.16-.35,7.8-1.15,10.91-2.39v13.73c-1.82,.5-3.66,.92-5.5,1.27-1.84,.35-3.78,.64-5.81,.87-2.03,.23-4.21,.39-6.53,.5-2.32,.1-4.87,.16-7.64,.16-4.6,0-8.66-.35-12.18-1.06-3.52-.71-6.41-1.9-8.67-3.57-2.26-1.68-3.85-3.9-4.79-6.68-.93-2.78-1.13-6.21-.59-10.32Zm10.07-18.15l-.81,1.8c3.98,1.37,8.18,2.05,12.62,2.05v-1.8c-2.11,0-4.13-.19-6.06-.56-1.93-.37-3.84-.87-5.75-1.49Zm23.68,24.05v-36.17h17.96v33.31c-1.08,.46-2.39,.87-3.95,1.24-1.55,.37-3.17,.69-4.85,.96-1.68,.27-3.32,.47-4.94,.59s-3.02,.15-4.23,.06Z"/></g><g><path class="cls-12" d="M352.01,378.6v-16.34c.95-.25,1.81-.66,2.58-1.24,.77-.58,1.43-1.38,1.99-2.39,.56-1.01,.99-2.3,1.31-3.85s.47-3.45,.47-5.69v-6.65c-.99,.37-2.05,.65-3.17,.84-1.12,.19-2.18,.3-3.17,.34v-16.03h21.19v25.91c0,3.89-.53,7.36-1.58,10.41-1.06,3.05-2.54,5.62-4.44,7.74-1.91,2.11-4.15,3.76-6.74,4.94-2.59,1.18-5.4,1.85-8.42,2.02Zm36.85,0h-14.23v-51.02h14.23v18.39h1.62v-18.39h14.23v51.02h-14.23v-18.83h-1.62v18.83Z"/><path class="cls-12" d="M409.19,361.2v-12.62c.87-.08,1.71-.28,2.52-.59,.81-.31,1.54-.72,2.21-1.24,.66-.52,1.19-1.14,1.58-1.86,.39-.72,.59-1.52,.59-2.39v-.43h-6.9v-12.62h4.47c.12,.5,.39,1.03,.81,1.58,.41,.56,.92,1.08,1.52,1.55,.6,.48,1.24,.87,1.93,1.18,.68,.31,1.34,.49,1.96,.53l.81-1.24c-1.74-.29-3.13-.92-4.16-1.9-1.04-.97-1.55-2-1.55-3.08v-2.8h20.88v4.16h5.84v12.62h-6.96v.43c0,1.78,.69,3.2,2.08,4.26,1.39,1.06,3.01,1.67,4.88,1.83v12.62c-1.08,0-2.17-.03-3.26-.09-1.1-.06-2.19-.18-3.26-.34v4.04h1.55c2.61,0,5.01-.19,7.21-.56v-36.67h17.96v51.02h-17.96v-1.68c-1.2,.54-2.45,.95-3.76,1.24-1.31,.29-2.66,.43-4.07,.43h-26.91v-13.8h6.84v-4.29c-2.28,.46-4.56,.68-6.84,.68Zm11.37-6.4l-1.06,1.55c.95,.62,1.86,1.16,2.73,1.62,.87,.46,1.75,.86,2.64,1.21,.89,.35,1.81,.66,2.77,.93,.95,.27,2.01,.53,3.17,.78l.37-1.68c-1.16-.25-2.21-.51-3.14-.78-.93-.27-1.81-.59-2.64-.96-.83-.37-1.64-.78-2.42-1.21-.79-.43-1.6-.92-2.42-1.46Z"/><path class="cls-12" d="M484.94,360.89h-17.96l-1.24-33.31h20.45l-1.24,33.31Zm0,17.71h-13.55c-1.41,0-2.5-.3-3.26-.9-.77-.6-1.15-1.63-1.15-3.08v-12.24h17.96v16.22Z"/></g></g><g><path class="cls-2" d="M385.73,152.08c0-13.76-9.9-23.66-23.66-23.66,13.76,0,23.66-9.9,23.66-23.66,0,13.76,9.9,23.66,23.66,23.66-13.76,0-23.66,9.9-23.66,23.66Z"/><path class="cls-12" d="M387.34,152.08h-3.22c0-12.78-9.28-22.05-22.05-22.05v-3.22c12.78,0,22.05-9.28,22.05-22.05h3.22c0,12.78,9.28,22.05,22.05,22.05v3.22c-12.78,0-22.05,9.27-22.05,22.05Zm-15.88-23.66c6.71,2.45,11.82,7.55,14.27,14.27,2.45-6.71,7.55-11.82,14.27-14.27-6.71-2.45-11.82-7.55-14.27-14.27-2.45,6.71-7.55,11.82-14.27,14.27Z"/></g><g><path class="cls-2" d="M23.66,47.33c0-13.76-9.9-23.66-23.66-23.66,13.76,0,23.66-9.9,23.66-23.66,0,13.76,9.9,23.66,23.66,23.66-13.76,0-23.66,9.9-23.66,23.66Z"/><path class="cls-12" d="M25.27,47.33h-3.22c0-12.78-9.27-22.05-22.05-22.05v-3.22C12.78,22.05,22.05,12.78,22.05,0h3.22c0,12.78,9.28,22.05,22.05,22.05v3.22c-12.78,0-22.05,9.28-22.05,22.05ZM9.39,23.66c6.71,2.45,11.82,7.55,14.27,14.27,2.45-6.71,7.55-11.82,14.27-14.27-6.71-2.45-11.82-7.55-14.27-14.27-2.45,6.71-7.55,11.82-14.27,14.27Z"/></g></g></g></svg>